<?xml version="1.0" encoding="UTF-8" standalone="no"?>
<svg
   xmlns:dc="http://purl.org/dc/elements/1.1/"
   xmlns:cc="http://creativecommons.org/ns#"
   xmlns:rdf="http://www.w3.org/1999/02/22-rdf-syntax-ns#"
   xmlns:svg="http://www.w3.org/2000/svg"
   xmlns="http://www.w3.org/2000/svg"
   viewBox="0 0 704.02405 544.88287"
   height="500"
   width="500"
   version="1.1"
   id="svg3336">
  <metadata
     id="metadata3342">
    
  </metadata>
  <defs
     id="defs3340" />
  <path
     id="path3346"
     d="m 165.51257,543.6116 c -11.29672,-2.74562 -24.64904,-11.3828 -33.66009,-21.7736 -11.73642,-13.53347 -16.82724,-26.94282 -16.82724,-44.32341 0,-9.68707 0.37975,-12.15116 3.16121,-20.51212 1.73867,-5.22636 3.91827,-10.62747 4.84356,-12.00247 0.9253,-1.375 2.87669,-4.3 4.33644,-6.5 4.92324,-7.41988 14.16611,-15.73378 21.65879,-19.48193 2.475,-1.2381 5.175,-2.83567 6,-3.55015 1.86885,-1.61849 10.97956,-3.96168 21.5851,-5.55149 6.99304,-1.04828 9.4243,-0.97117 18,0.5709 14.7306,2.64884 16.0772,3.2398 30.1944,13.25098 9.1364,6.47906 16.6329,15.80396 20.5179,25.52221 1.4864,3.71829 2.7026,7.95785 2.7026,9.42126 0,1.46341 0.7199,3.45622 1.5998,4.42847 2.0251,2.23775 2.5965,25.16708 0.7223,28.9882 -0.6478,1.32085 -2.1787,5.55155 -3.4019,9.40155 -2.1331,6.71397 -8.2416,16.83159 -13.7933,22.84582 -7.3525,7.96518 -23.4849,17.5355 -32.92612,19.53301 -6.89073,1.45789 -28.29344,1.29313 -34.71345,-0.26723 z m 26.07901,-18.69656 c 14.67486,-2.68328 28.30756,-14.91156 33.54316,-30.08752 3.1052,-9.00102 3.1015,-25.66471 -0.01,-34.67831 -4.5323,-13.13853 -14.9325,-24.13229 -26.76281,-28.29032 -6.57379,-2.3105 -22.74883,-2.54271 -29.77719,-0.42748 -13.28056,3.99686 -26.01717,18.42536 -29.19096,33.06859 -4.94471,22.81397 3.26968,44.1082 21.29305,55.19808 9.23374,5.68158 19.17919,7.36057 30.90259,5.21696 z m 347.51716,18.01963 c -2.9791,-0.53138 -5.9429,-1.40304 -6.5863,-1.93702 -0.6434,-0.53398 -3.1112,-1.65581 -5.4839,-2.49296 -11.1238,-3.9247 -24.9563,-16.25097 -32.7462,-29.18029 -3.4711,-5.7613 -8.42859,-17.82845 -8.42859,-21.33147 0,-0.9959 0.71149,-0.15301 0.16149,-0.49293 -1.2739,-0.78729 -1.3261,-21.92488 -0.06,-24.26357 0.5171,-0.95504 1.9085,-5.11143 3.0922,-9.23643 1.1836,-4.125 2.6925,-8.175 3.353,-9 0.6606,-0.825 1.8156,-2.72908 2.5668,-4.23129 1.7698,-3.53904 9.4491,-12.47771 14.5479,-16.93356 5.6463,-4.93435 15.0471,-10.34368 21.5,-12.37146 3.025,-0.95058 6.1315,-2.23128 6.9033,-2.84601 1.9643,-1.56458 28.0362,-1.49456 31.1934,0.0838 1.3218,0.6608 5.5868,2.27572 9.4777,3.58872 14.1404,4.7717 29.0463,18.90409 37.0764,35.15236 2.2454,4.54329 3.3143,7.94638 3.0019,9.55666 -0.18773,-2.0777 -1.19553,-3.19968 -0.18773,-2.0777 1.3722,1.52767 3.03503,10.55498 3.03503,21.1335 0,8.94267 -0.3797,13.22476 -1.25,14.09501 -0.6875,0.6875 -1.25,2.68448 -1.25,4.43773 0,3.45618 -5.77233,16.65333 -8.10793,18.5917 -0.7918,0.65708 -0.58408,0.78248 -0.89207,1.35469 C 609.37672,515.73884 595.29864,531 593.96424,531 c -0.4321,0 -2.0577,1.06888 -3.6124,2.3753 -1.5547,1.30641 -6.8767,4.05758 -11.8267,6.1137 -8.4885,3.52595 -9.7104,3.75754 -21.5,4.07511 -6.875,0.18519 -14.9374,-0.0981 -17.9165,-0.62944 z m 27.2031,-21.66754 c 0.6674,-0.50433 3.0134,-1.43382 5.2134,-2.06553 9.45,-2.71349 22.0645,-15.8432 24.5228,-25.52424 0.5834,-2.29755 1.5942,-5.23887 2.2462,-6.53628 1.6056,-3.1947 1.5729,-20.69923 -0.042,-22.31381 -0.675,-0.675 -0.33756,-0.9636 -0.67977,-2.00636 -2.03291,-6.19462 -10.37553,-21.42871 -18.86423,-26.92921 -6.8166,-4.41696 -12.6139,-5.8917 -23.1607,-5.8917 -10.4179,0 -18.5392,1.99473 -22.8337,5.60835 -1.5633,1.31541 -3.2068,2.39165 -3.6522,2.39165 -0.4454,0 -3.4124,3.18116 -6.5933,7.06925 -4.6422,5.67409 -6.2788,8.68377 -8.2929,15.25 -2.7867,9.08497 -3.8714,19.84705 -2.3257,23.07511 0.5545,1.1581 1.5174,4.30362 2.1399,6.99003 2.9595,12.77242 13.6943,25.04732 25.0802,28.67857 1.9003,0.60605 4.3551,1.48191 5.4551,1.94635 1.1,0.46445 2.675,1.09646 3.5,1.40447 2.2302,0.83264 16.8834,-0.0862 18.2866,-1.14665 z M 50.929786,464.25404 c -8.28665,-5.60025 -13.66171,-9.38452 -15.57153,-10.96301 l -2.16698,-1.79103 -0.59278,-79.96032 -0.59277,-79.96033 -2.317,-3.53967 c -1.27435,-1.94683 -3.49914,-5.33968 -4.94398,-7.53968 -1.44483,-2.2 -3.36761,-5.8 -4.27283,-8 -0.90522,-2.2 -2.19978,-4.675 -2.8768,-5.5 -0.67702,-0.825 -2.03649,-3.75 -3.02103,-6.5 -0.98454,-2.75 -2.38841,-5.9625 -3.11971,-7.13888 -0.7313,-1.17639 -2.5048202,-6.35139 -3.9411602,-11.5 C 6.0768858,236.7125 4.5168758,231.6 4.0465358,230.5 c -0.47035,-1.1 -1.59925,-6.275 -2.50868,-11.5 -3.00358,-17.25658 -1.30787004,-71.16651 2.50062,-79.5 0.50271,-1.1 2.03732,-5.96821 3.41023,-10.81825 2.5716002,-9.0846 4.6280802,-13.97023 12.1195102,-28.79272 7.64911,-15.13445 12.73607,-22.69351 24.30872,-36.12197 C 57.363396,48.11791 70.83547,36.3946 85.55396,27.5 c 3.64048,-2.2 8.23157,-5.04696 10.20241,-6.32657 1.97085,-1.27962 5.8751,-3.22282 8.67611,-4.31823 2.80102,-1.09542 5.99276,-2.55154 7.09276,-3.23582 4.46549,-2.77786 24.18834,-8.86982 36.16255,-11.16983 C 158.98756,0.2791 163.13261,0 184.06813,0 c 22.06011,0 24.63971,0.19595 38.88391,2.95358 8.391,1.62446 15.7777,3.36457 16.4148,3.86689 0.6371,0.50232 4.3084,1.93311 8.1584,3.17953 3.85,1.24642 7.45,2.60934 8,3.02871 0.55,0.41936 3.8727,1.96552 7.3838,3.4359 3.5112,1.47038 7.5612,3.47951 9,4.46474 1.4389,0.98522 5.9912,3.75129 10.1162,6.14681 4.125,2.39551 9.2319,5.72086 11.3486,7.38966 9.5777,7.55084 20.6687,17.58425 26.1617,23.66709 7.05,7.80706 17.4897,20.54204 17.4897,21.33504 0,0.30507 1.8,3.19167 4,6.41467 2.2,3.223 4,6.23122 4,6.68494 0,0.45372 1.2348,2.60674 2.744,4.7845 l 2.744,3.95957 77.506,-0.57529 c 64.9292,-0.48193 77.9117,-0.3507 80.006,0.80875 1.375,0.76122 3.5307,1.39999 4.7905,1.41947 4.2505,0.0658 15.2932,8.99925 16.6361,13.45856 0.5097,1.69228 1.0897,12.14878 1.2889,23.23666 0.3059,17.02804 0.6127,20.36798 1.9748,21.5 1.2077,1.00366 7.7899,1.48073 26.2112,1.89977 23.4505,0.53343 25.035,0.69392 33.9504,3.43889 11.8337,3.64343 18.4887,8.97627 19.5596,15.67367 0.7331,4.5842 3.2315,7.77685 29.5463,37.7558 7.4482,8.48535 18.1843,20.86035 23.858,27.5 5.6737,6.63965 11.4112,12.98899 12.75,14.10965 1.3388,1.12067 2.4455,2.47067 2.4594,3 0.051,1.95214 12.8293,14.5037 16.199,15.91164 6.8453,2.86016 6.7759,2.42747 6.7745,42.26562 -7e-4,19.68185 -0.2989,55.01851 -0.6627,78.52591 l -0.6614,42.74073 -5.0873,5.37238 c -2.798,2.95482 -7.4579,7.90899 -10.3553,11.00927 l -5.268,5.63689 -25.754,0 -25.7541,0 -1.6511,-7.98489 c -0.9619,-4.65189 -3.4572,-11.62628 -5.9779,-16.70861 -7.4579,-15.0363 -26.9618,-32.41185 -40.8269,-36.37153 -2.475,-0.70682 -4.95,-1.59742 -5.5,-1.97909 -2.8776,-1.99696 -13.1438,-3.37872 -24.5,-3.29754 -11.4667,0.082 -13.3679,0.37715 -23,3.57101 -18.503,6.13532 -30.5353,14.97971 -41.1817,30.27072 -4.299,6.17445 -10.8297,21.16596 -11.5456,26.50356 -0.2926,2.1817 -1.0848,4.42548 -1.7604,4.98618 -0.8216,0.68189 -35.9077,0.93513 -105.963,0.76482 L 263.83994,465.5 l -3.415,-9.92968 c -1.8782,-5.46132 -4.0341,-10.63632 -4.7908,-11.5 -0.7567,-0.86368 -2.2908,-3.37032 -3.409,-5.57032 -2.5445,-5.00619 -13.6254,-16.72561 -19.9359,-21.08469 -7.3983,-5.11054 -19.067,-10.417 -26.764,-12.17124 -9.46915,-2.15813 -32.53085,-2.15813 -42,0 -11.59426,2.64247 -25.7066,10.26737 -34.71388,18.75593 -4.15962,3.92007 -14.78612,17.02049 -14.78612,18.22843 0,0.42976 -1.16714,3.14167 -2.59365,6.02647 -1.42651,2.88481 -3.37978,7.9451 -4.34061,11.2451 l -1.74695,6 -25.90939,0.25404 c -23.304874,0.2285 -26.170314,0.0777 -28.504854,-1.5 z m 356.595454,-19.86421 56,-0.67445 3.25,-4.84693 c 1.7875,-2.66581 3.25,-5.58089 3.25,-6.47795 0,-3.86852 13.0484,-21.14165 21.1584,-28.00907 2.5211,-2.13479 7.0423,-5.7622 10.0472,-8.06092 l 5.4635,-4.1795 0.6654,-99.23604 c 0.366,-54.57983 0.6655,-114.1517 0.6655,-132.38195 0,-31.97474 -0.072,-33.22323 -2.039,-35.33446 L 503.94734,123 l -71.9611,0 c -71.456,0 -71.961,0.0141 -71.961,2.01357 0,1.10746 0.4292,2.79496 0.9538,3.75 0.9773,1.77942 3.3996,11.59885 4.622,18.73643 0.3767,2.2 1.0369,4.45 1.467,5 0.4301,0.55 1.3172,8.0875 1.9715,16.75 0.9173,12.14662 0.9188,19.329 0.01,31.39343 -0.6507,8.60388 -1.5747,16.36638 -2.0535,17.25 -0.4788,0.88361 -1.8259,6.27907 -2.9937,11.98989 -1.1678,5.71083 -2.5183,11.11083 -3.0012,12 -0.4829,0.88918 -1.8524,4.54168 -3.0434,8.11668 -1.191,3.575 -3.0046,8.075 -4.0302,10 -1.0256,1.925 -2.7622,5.525 -3.8591,8 -1.0969,2.475 -3.4671,6.97944 -5.267,10.00986 -1.8,3.03042 -4.1727,7.0344 -5.2727,8.89773 -1.1,1.86333 -3.1448,4.78389 -4.544,6.49014 -1.3991,1.70625 -3.2487,4.22727 -4.1101,5.60227 -4.8096,7.67699 -27.1981,29.34347 -38.7497,37.5 -2.3368,1.65 -5.4519,3.95404 -6.9225,5.12008 -4.5205,3.58448 -29.2705,15.99113 -36.6737,18.38379 -3.85,1.24429 -7.4566,2.61965 -8.0147,3.05636 -0.558,0.43671 -7.533,2.2272 -15.5,3.97886 -28.41778,6.24814 -52.77081,6.26481 -81.47155,0.0558 -8.24243,-1.78314 -15.49705,-3.66602 -16.12139,-4.18417 -0.62434,-0.51816 -3.55553,-1.65078 -6.51377,-2.51694 -5.56883,-1.63052 -21.93453,-9.35553 -29.97968,-14.15112 -9.85077,-5.87164 -14.059,-8.84806 -24.732594,-17.49266 -4.80979,-3.89548 -9.6005,-4.91633 -11.96683,-2.55 -0.90493,0.90494 -1.2,15.05455 -1.2,57.54545 l 0,56.34546 2.45455,2.45454 C 57.879196,444.94188 58.306996,445 73.54852,445 c 8.58616,0 16.45641,-0.45234 17.48944,-1.0052 3.77062,-2.01798 7.77174,-6.58339 8.92376,-10.18232 0.64921,-2.02813 2.06987,-4.81832 3.15703,-6.20042 1.08716,-1.38209 2.60918,-3.73209 3.38226,-5.22222 2.28594,-4.40614 13.19905,-16.04579 20.36579,-21.72164 7.82135,-6.19427 19.415,-12.66566 27.16144,-15.16108 3.025,-0.97446 5.9674,-2.13839 6.53867,-2.5865 0.57128,-0.44811 6.08378,-1.36193 12.25,-2.03071 8.80175,-0.95464 13.62091,-0.95464 22.42266,0 6.16622,0.66878 11.67877,1.58225 12.24997,2.02992 0.5713,0.44768 4.1887,1.84053 8.0387,3.09524 3.85,1.25471 8.0732,3.11461 9.3849,4.13311 1.3116,1.0185 2.9113,1.85182 3.5547,1.85182 2.0103,0 13.7759,8.75926 20.3177,15.12613 9.4517,9.19907 22.2427,28.58012 22.2427,33.70249 0,4.54183 1.3526,4.68486 42.1138,4.45352 21.1124,-0.11982 63.5862,-0.52136 94.3862,-0.89231 z M 673.02894,439 c 0,-0.275 0.933,-2.02422 2.0687,-3.88714 2.357,-3.86612 2.6014,-9.9726 3.1339,-78.31233 0.2242,-28.7738 0,-37.99006 -0.9332,-38.92686 -0.9447,-0.94515 -17.3859,-1.2442 -71.5,-1.30053 l -70.2731,-0.0731 0,32 0,32 8.5,-0.26023 c 10.0449,-0.30754 29.7708,1.34031 31.3752,2.621 0.6187,0.49378 3.6879,1.63259 6.8206,2.53068 6.9754,1.99975 19.4138,8.59448 26.8042,14.21132 8.1715,6.21054 17.7954,16.68049 20.0801,21.84532 1.1074,2.50355 2.4654,4.55191 3.0177,4.55191 0.5524,0 1.6303,1.49832 2.3955,3.32961 0.7651,1.83128 2.0922,3.91138 2.9489,4.62244 0.8568,0.71106 1.5578,2.06274 1.5578,3.00373 0,0.94099 0.1875,1.89839 0.4167,2.12755 0.5982,0.59828 33.5826,0.51644 33.587,-0.0833 z M 211.52524,332.00616 c 3.3,-0.65502 6.45,-1.53789 7,-1.96194 0.55,-0.42405 4.375,-1.55969 8.5,-2.52366 4.125,-0.96396 8.85,-2.50669 10.5,-3.4283 1.65,-0.9216 5.25,-2.50596 8,-3.52081 2.75,-1.01484 5.675,-2.40728 6.5,-3.09431 0.825,-0.68703 3.75,-2.44277 6.5,-3.90166 4.7401,-2.51461 10.9197,-6.62985 12.9126,-8.59895 0.5465,-0.53997 -3.0638,-4.971 -9,-11.04607 -22.2924,-22.81374 -61.7365,-63.46317 -93.4126,-96.26709 -6.875,-7.11978 -15.425,-15.96161 -19,-19.64851 -3.575,-3.6869 -16.4,-16.95042 -28.5,-29.47448 C 69.46593,94.65661 68.196106,93.41588 66.315126,94.5954 c -3.61113,2.26448 -16.47833,25.35119 -19.79764,35.5215 -0.96629,2.96071 -2.07699,5.8331 -2.46821,6.3831 -3.18928,4.4836 -7.41836,32.12976 -7.41913,48.5 -7.5e-4,16.03994 4.22201,43.39728 7.33189,47.5 0.41691,0.55 1.5397,3.45081 2.49511,6.44625 3.91667,12.2798 14.10333,30.18233 23.785154,41.80117 8.64096,10.36973 23.58131,24.02203 29.78294,27.21525 1.375,0.70799 3.4,2.07951 4.5,3.04782 5.03617,4.43327 26.49328,14.25934 36,16.48585 3.85,0.90169 7.88892,2.12604 8.97538,2.72077 6.42749,3.51846 47.36316,4.69922 62.02462,1.78905 z m 458.75,-47.12708 c 0.9625,-1.15535 1.75,-2.63302 1.75,-3.2837 0,-1.03488 -7.367,-9.6635 -30.5,-35.72308 -3.3,-3.71749 -10.7086,-12.07205 -16.4637,-18.56568 -15.7273,-17.74582 -24.3103,-26.94768 -27.4082,-29.38452 -5.371,-4.22483 -15.4405,-6.0206 -36.1041,-6.43871 -10.4368,-0.21118 -20.5665,-0.65268 -22.5105,-0.98111 -2.7481,-0.4643 -4.0328,-0.13296 -5.774,1.48924 l -2.2395,2.08639 0,45.1323 c 0,37.70612 0.235,45.39208 1.4282,46.71105 1.2788,1.41354 8.473,1.55152 68.75,1.31861 67.0192,-0.25897 67.3297,-0.26958 69.0718,-2.36079 z m -369.2134,-9.12911 c 3.856,-4.94045 9.7158,-14.09099 11.1081,-17.34615 0.6831,-1.5971 1.7456,-3.57882 2.361,-4.40382 0.6155,-0.825 1.9581,-3.525 2.9836,-6 1.0255,-2.475 2.7,-6.42105 3.7213,-8.769 9.8223,-22.58335 12.834,-63.35299 6.4068,-86.731 -0.756,-2.75 -1.9404,-7.475 -2.6319,-10.5 -0.6916,-3.025 -2.0752,-7.3 -3.0747,-9.5 -0.9995,-2.2 -2.7626,-6.44061 -3.9179,-9.42357 -1.1553,-2.98296 -3.6513,-8.06957 -5.5467,-11.30358 -1.8954,-3.234 -3.4462,-6.15796 -3.4462,-6.49769 0,-0.33972 -0.7475,-1.44371 -1.6612,-2.45331 -0.9137,-1.00959 -2.1512,-2.68823 -2.75,-3.73031 -5.6338,-9.80397 -28.2945,-32.80936 -36.4093,-36.96314 -1.4737,-0.75438 -3.5795,-2.15159 -4.6795,-3.10491 -4.9587,-4.29748 -28.2534,-14.97535 -38.1306,-17.4784 -3.2282,-0.81807 -8.3444,-2.14787 -11.3694,-2.95512 -9.9827,-2.66396 -28.99999,-3.75211 -43.41738,-2.4843 -7.19544,0.63274 -15.33262,1.78283 -18.08262,2.55576 -2.75,0.77293 -7.64123,2.07262 -10.86941,2.8882 -5.45526,1.37823 -16.10528,5.53315 -23.13059,9.02398 -10.23602,5.08622 -24.38045,14.47437 -25.06714,16.63794 -0.62415,1.96651 0.0965,2.8332 16.03842,19.28845 3.72989,3.85 16.51222,17.05264 28.40517,29.3392 11.89295,12.28656 26.12355,26.95539 31.62355,32.5974 5.5,5.64201 20.125,20.74003 32.5,33.55115 12.375,12.81112 25.425,26.28415 29,29.94007 14.4897,14.81769 57.0215,58.8494 60.6331,62.7714 2.1268,2.30958 4.5419,4.22206 5.3669,4.24997 0.825,0.0279 2.6415,-1.41174 4.0366,-3.19922 z"
     style="fill:#ffffff" />
</svg>
