<?xml version="1.0" encoding="UTF-8" standalone="no"?>
<svg
   xmlns:dc="http://purl.org/dc/elements/1.1/"
   xmlns:cc="http://creativecommons.org/ns#"
   xmlns:rdf="http://www.w3.org/1999/02/22-rdf-syntax-ns#"
   xmlns:svg="http://www.w3.org/2000/svg"
   xmlns="http://www.w3.org/2000/svg"
   xmlns:sodipodi="http://sodipodi.sourceforge.net/DTD/sodipodi-0.dtd"
   xmlns:inkscape="http://www.inkscape.org/namespaces/inkscape"
   viewBox="0 0 500.97235 767.60883"
   height="500"
   width="500"
   version="1.1"
   id="svg3376"
   inkscape:version="0.91 r13725"
   sodipodi:docname="choice.svg">
  <sodipodi:namedview
     pagecolor="#ffffff"
     bordercolor="#666666"
     borderopacity="1"
     objecttolerance="10"
     gridtolerance="10"
     guidetolerance="10"
     inkscape:pageopacity="0"
     inkscape:pageshadow="2"
     inkscape:window-width="640"
     inkscape:window-height="480"
     id="namedview3358"
     showgrid="false"
     inkscape:zoom="0.472"
     inkscape:cx="250"
     inkscape:cy="250"
     inkscape:window-x="0"
     inkscape:window-y="0"
     inkscape:window-maximized="0"
     inkscape:current-layer="svg3376" />
  <metadata
     id="metadata3382">
    <rdf:RDF>
      <cc:Work
         rdf:about="">
        <dc:format>image/svg+xml</dc:format>
        <dc:type
           rdf:resource="http://purl.org/dc/dcmitype/StillImage" />
      </cc:Work>
    </rdf:RDF>
  </metadata>
  <defs
     id="defs3380" />
  <path
     id="path3386"
     d="m 278.96406,767.25309 c -4.44991,-0.1953 -8.58486,-0.7821 -9.18877,-1.3041 -1.45726,-1.2595 -6.41481,-1.2202 -6.41481,0.051 0,0.55 -0.78017,1 -1.73373,1 -0.95355,0 -1.73374,-0.3946 -1.73374,-0.8769 0,-0.4822 -2.5777,-1.8362 -5.72801,-3.0087 -3.22081,-1.1988 -7.03779,-3.6176 -8.72021,-5.526 -1.64565,-1.8666 -4.26925,-3.67125 -5.83018,-4.01021 -1.81869,-0.39493 -2.83801,-1.32779 -2.83801,-2.59723 0,-1.08952 -0.56681,-1.98095 -1.25961,-1.98095 -1.16588,0 -4.11437,-2.05784 -11.11657,-7.75838 -1.52568,-1.24211 -2.42445,-2.74767 -1.99726,-3.34569 0.94512,-1.32305 -9.17294,-10.42406 -13.83286,-12.44234 C 206.45711,724.53833 201.72344,724 195.7883,724 c -6.4986,0 -10.12279,-0.45597 -11.66962,-1.4682 -1.82574,-1.19471 -7.44892,-1.47412 -30.18866,-1.5 -28.69683,-0.0327 -43.53758,-1.125 -49.10088,-3.61405 C 103.08628,716.63799 99.519292,716 96.902522,716 93.608318,716 90.979278,715.23095 88.356384,713.5 86.272666,712.125 84.198431,711 83.746739,711 81.992424,711 71.89899,706.60621 68.498911,704.36247 66.529971,703.06311 64.317961,702 63.583321,702 c -0.73464,0 -1.335667,-0.35954 -1.335667,-0.79897 0,-0.43944 -2.066492,-1.90194 -4.592192,-3.25 -2.525698,-1.34807 -4.606173,-2.80609 -4.623279,-3.24006 -0.04161,-1.06608 -8.849195,-8.70775 -10.053908,-8.72344 C 40.970153,685.96143 28.481982,674.66629 27.236886,671.75 26.820733,670.77528 25.307462,670 23.821078,670 c -3.527693,0 -7.690913,-2.60726 -9.030383,-5.65535 -0.648796,-1.47643 -3.036295,-3.20394 -5.9951035,-4.33785 -5.6659951,-2.1714 -10.1181138,-5.46199 -10.1181138,-7.47837 0,-0.76651 -1.1702678,-1.71354 -2.6005959,-2.1045 -2.5260464,-0.69047 -4.7641439,-2.81105 -7.3056668,-6.92206 -5.150395,-8.33095 -9.128545,-14.24599 -10.496633,-15.60725 -0.887393,-0.88296 -1.29282,-2.32826 -0.900962,-3.21177 0.39187,-0.88351 -0.115709,-3.04272 -1.127954,-4.79825 -1.012233,-1.75553 -1.840425,-5.3999 -1.840425,-8.0986 l 0,-4.90673 4.324711,0.31036 c 3.255508,0.23364 4.429279,0.80483 4.747661,2.31037 0.232621,1.1 0.99433,2.6079 1.692689,3.35088 0.698347,0.74299 1.372803,1.95846 1.498776,2.70106 0.125973,0.7426 2.099213,3.01624 4.3849877,5.05252 2.2857746,2.03629 4.15595,4.45703 4.15595,5.37942 0,0.92239 2.3405368,3.13133 5.2011941,4.90874 2.8606562,1.77741 5.201193,3.61093 5.201193,4.07449 0,0.46357 2.3309673,2.02473 5.1799382,3.46924 2.84896,1.44452 5.727913,3.51228 6.397676,4.59503 0.826887,1.33675 2.42059,1.96862 4.965279,1.96862 2.061141,0 4.788161,0.63063 6.060051,1.40139 1.271888,0.77077 3.598127,1.55827 5.16942,1.75 1.882092,0.22966 2.978052,1.08424 3.211979,2.50457 0.216184,1.31251 1.459663,2.3958 3.178519,2.76905 1.552845,0.3372 2.823439,1.20421 2.823439,1.92668 0,1.40674 7.342583,6.85584 10.691339,7.93419 1.112478,0.35824 2.037135,1.45297 2.054703,2.43274 0.01733,0.97976 1.578042,3.09388 3.467463,4.69805 1.889535,1.60416 3.435445,3.29166 3.435445,3.75 0,0.45833 1.206446,0.83333 2.681042,0.83333 1.474597,0 3.811782,1.125 5.193566,2.5 1.381899,1.375 3.270279,2.5 4.19644,2.5 0.926155,0 2.09978,0.5733 2.60822,1.27401 1.26609,1.74521 6.83715,4.72599 8.83279,4.72599 0.898078,0 2.280438,0.675 3.071822,1.5 0.791395,0.825 3.136092,1.5 5.21056,1.5 2.074468,0 5.261523,0.67223 7.082406,1.49384 1.82077,0.82161 5.00101,1.49661 7.06703,1.5 2.06604,0.003 3.75642,0.45616 3.75642,1.00616 0,0.5519 3.00849,1 6.71394,1 4.11414,0 7.58287,0.56855 8.95761,1.4682 1.36918,0.89594 4.94668,1.48646 9.1786,1.51505 3.81421,0.0258 9.0154,0.69534 11.55821,1.48791 6.34707,1.97837 20.67717,1.99637 22.95125,0.0288 0.95355,-0.825 2.51564,-1.5 3.47128,-1.5 2.62336,0 6.81321,-5.74446 7.95852,-10.91142 0.55941,-2.52372 1.30134,-9.41189 1.64877,-15.30705 0.43482,-7.37765 1.1326,-11.07815 2.23882,-11.87244 0.88398,-0.63465 1.60717,-2.49638 1.60717,-4.13714 0,-1.72312 1.22044,-4.23815 2.88956,-5.95428 1.58925,-1.63409 2.88955,-4.19655 2.88955,-5.69436 0,-1.4978 0.4851,-3.15077 1.07792,-3.67327 1.26447,-1.11427 -0.63351,-16.84465 -2.41832,-20.04332 -0.64241,-1.15133 -1.35971,-6.32633 -1.59399,-11.5 -0.23429,-5.17367 -0.50452,-9.85668 -0.60034,-10.40668 -0.61548,-3.53013 1.52972,-36.16533 2.42838,-36.94285 0.60842,-0.52643 1.10635,-1.74479 1.10635,-2.70746 0,-0.96267 0.85311,-2.16342 1.89601,-2.66832 1.08544,-0.52556 1.53042,-1.42967 1.04105,-2.11484 -0.62969,-0.88148 -1.44905,-0.73164 -3.10986,0.56871 -2.11261,1.65414 -2.48825,1.66164 -5.95328,0.11889 -2.03413,-0.90566 -6.299,-1.87152 -9.4775,-2.14636 -11.8511,-1.02476 -18.88553,-2.22968 -20.72398,-3.54975 -1.56845,-1.12615 -2.3773,-1.13544 -4.71251,-0.0542 -2.51091,1.16267 -3.30299,1.01518 -7.24654,-1.34926 -2.4352,-1.45999 -4.8244,-2.65456 -5.30938,-2.65456 -0.48498,0 -2.5376,-1.01363 -4.56122,-2.25251 -5.13969,-3.14659 -7.90211,-4.6018 -10.80981,-5.69444 -1.37901,-0.51819 -2.93936,-1.57643 -3.46747,-2.35163 -0.52809,-0.7752 -2.1304,-1.94098 -3.56073,-2.59062 -1.62427,-0.73773 -2.60059,-2.10652 -2.60059,-3.64598 0,-2.06552 -0.55515,-2.46482 -3.4269,-2.46482 -3.77017,0 -5.81968,-2.23403 -5.81968,-6.34351 0,-1.72027 -2.46721,-4.64369 -8.090733,-9.58697 -4.521811,-3.97478 -8.090747,-7.98485 -8.090747,-9.09075 0,-1.44402 -0.780874,-1.97877 -2.889554,-1.97877 -2.364923,0 -2.889553,-0.48762 -2.889553,-2.68564 0,-1.67596 -1.738241,-4.4691 -4.623281,-7.42941 C 74.294196,482.4563 74.113082,482 77.249513,482 c 1.258344,0 5.058573,2.475 8.445124,5.5 3.386445,3.025 6.513976,5.5 6.949956,5.5 0.805719,0 3.70822,1.99271 11.141307,7.64891 2.27604,1.7319 5.43362,3.3069 7.01698,3.5 1.61931,0.19749 3.37788,1.33545 4.01972,2.60109 0.84167,1.65974 2.11237,2.25 4.84404,2.25 2.03667,0 4.00411,0.4215 4.37212,0.93668 1.25395,1.75529 8.12461,4.19608 12.77783,4.53928 2.5531,0.18829 7.68898,1.50823 11.41316,2.9332 3.72417,1.42496 7.42291,2.59084 8.21962,2.59084 0.79658,0 2.09585,0.675 2.88724,1.5 1.17177,1.22166 4.95315,1.5 20.37781,1.5 l 18.93893,0 8.65919,-7.5406 c 4.95673,-4.31634 8.65928,-8.39183 8.65928,-9.53139 0,-1.09493 0.78019,-2.2498 1.73374,-2.56638 1.26389,-0.41963 1.73373,-2.13927 1.73373,-6.34617 0,-3.90945 0.55907,-6.17207 1.73373,-7.01546 1.23673,-0.88802 1.73373,-3.23695 1.73373,-8.19387 0,-4.91189 0.51965,-7.39866 1.77291,-8.48293 1.00095,-0.86603 1.47553,-2.3447 1.08995,-3.39594 C 224.9885,467.79799 233.75066,457 236.25961,457 c 0.83438,0 1.83867,-0.87698 2.23189,-1.94885 0.39321,-1.07186 1.85866,-2.2465 3.2564,-2.61031 1.39785,-0.36381 4.23574,-2.05336 6.30651,-3.75455 3.4915,-2.8683 3.71331,-3.43086 3.0524,-7.74084 -0.57178,-3.72991 -0.34524,-4.76969 1.14728,-5.26522 1.55885,-0.51753 1.85983,-2.46386 1.85983,-12.0264 0,-8.92133 0.37795,-11.68038 1.73373,-12.65383 0.95355,-0.68469 1.73372,-2.0959 1.73372,-3.13601 0,-1.04012 0.45817,-2.67252 1.01805,-3.62756 0.56,-0.95504 2.21039,-3.98643 3.66753,-6.73643 3.65379,-6.89543 17.80461,-19.5 21.89218,-19.5 1.78089,0 4.21077,-1.05004 5.78523,-2.5 2.62186,-2.41464 3.2207,-2.5 17.53877,-2.5 13.50461,0 14.82421,0.16023 14.82421,1.8 0,2.85034 2.11885,3.981 6.13879,3.27569 3.27711,-0.57498 3.72614,-1.06934 4.05116,-4.45928 0.23787,-2.48172 -0.28907,-4.43833 -1.5095,-5.60514 -1.40709,-1.34519 -1.81672,-3.51992 -1.6415,-8.71413 0.17487,-5.18135 -0.27809,-7.59734 -1.80192,-9.60936 -2.42665,-3.20433 -3.60027,-3.38711 -4.41617,-0.68778 -0.33241,1.1 -1.17327,2 -1.8685,2 -1.86884,0 -1.53423,-3.56107 0.46973,-5 0.95355,-0.68469 1.73373,-2.70969 1.73373,-4.5 0,-1.79031 -0.78018,-3.81531 -1.73373,-4.5 -0.95355,-0.68469 -1.73373,-2.03803 -1.73373,-3.00743 0,-0.9694 -1.32989,-2.51642 -2.9552,-3.43781 -2.43208,-1.37874 -2.89244,-2.32835 -2.6006,-5.36501 0.30213,-3.14364 0.78111,-3.70827 3.23665,-3.8149 3.96701,-0.17225 6.02483,0.64559 5.36543,2.13234 -0.72157,1.62684 1.47934,3.49281 4.11981,3.49281 1.24112,0 2.08048,0.73406 2.08048,1.81966 0,1.00082 1.17026,2.76962 2.6006,3.93067 1.43032,1.16105 3.2712,2.8172 4.0909,3.68034 0.81972,0.86313 2.5101,1.56933 3.75642,1.56933 1.80355,0 2.2661,0.68931 2.2661,3.37756 0,1.85765 0.78019,3.93775 1.73374,4.62244 0.95355,0.68469 1.73373,2.05713 1.73373,3.04986 0,0.99274 1.42686,2.77607 3.17088,3.96297 2.93716,1.99887 3.02235,2.25199 1.15582,3.43282 -2.41659,1.52881 -2.85974,11.42358 -0.59929,13.37931 1.11721,0.96661 1.11721,1.63864 0,3.18643 -2.41914,3.35144 -1.75986,6.92493 1.47378,7.98861 1.58926,0.52277 2.88956,1.44463 2.88956,2.04857 0,2.15382 3.95648,0.39496 4.61993,-2.05382 0.40638,-1.49984 1.62208,-2.614 3.04824,-2.79378 1.33543,-0.16835 3.45694,-1.96889 4.85434,-4.12004 2.85429,-4.39383 5.50552,-6.54431 8.09467,-6.56586 0.99597,-0.008 2.11619,-1.14007 2.4894,-2.51507 0.51677,-1.90393 1.53262,-2.57273 4.26047,-2.80503 2.03552,-0.17334 4.99004,-1.52323 6.84328,-3.12668 2.69837,-2.33453 3.98179,-2.73803 7.43493,-2.33732 2.88458,0.33475 4.74742,-0.0122 6.03177,-1.12332 C 402.41,354.55345 405.06758,354 408.91126,354 c 6.56333,0 7.63073,1.27079 2.39428,2.85016 -1.9071,0.57519 -3.46746,1.71264 -3.46746,2.52767 0,0.81502 -2.34054,2.4932 -5.2012,3.72927 -5.51187,2.38162 -6.27783,3.32149 -3.46745,4.25453 0.95355,0.31658 1.73373,1.03972 1.73373,1.60699 0,1.63357 -3.14627,1.19793 -3.91823,-0.54253 -1.034,-2.33111 -4.54574,-1.29157 -5.33481,1.57916 -0.59236,2.15505 -1.35173,2.50581 -5.57695,2.57601 -5.40486,0.0898 -7.80329,1.45982 -6.74248,3.85152 0.53132,1.19787 2.44467,1.56722 8.11895,1.56722 6.9548,0 7.46961,-0.15795 8.149,-2.5 0.63478,-2.1883 1.35335,-2.5 5.76292,-2.5 3.06778,0 5.60018,-0.58652 6.47652,-1.5 2.14173,-2.23276 45.98029,-2.23276 46.97059,0 0.51366,1.15802 2.7452,1.5 9.78831,1.5 8.9605,0 9.12289,0.0445 9.12289,2.5 l 0,2.5 -11.85815,0 c -10.84645,0 -11.98921,0.18165 -13.39515,2.1294 -1.44246,1.99837 -2.24529,2.09988 -13.04887,1.64979 -9.82193,-0.4092 -12.18223,-0.19266 -16.07827,1.47511 -2.51161,1.07509 -4.56642,2.55235 -4.56642,3.28282 0,1.91835 -4.12478,2.76411 -6.99618,1.43454 -2.66845,-1.23556 -9.18531,0.35325 -9.18531,2.23937 0,1.75309 5.14259,4.72179 8.23811,4.7557 1.67039,0.0183 3.68452,0.70827 4.47591,1.53327 0.7914,0.825 1.97622,1.5 2.63296,1.5 0.65686,0 2.89892,1.125 4.98263,2.5 2.0836,1.375 4.54758,2.5 5.47559,2.5 0.92789,0 1.98651,0.675 2.35244,1.5 0.36594,0.825 1.72183,1.5 3.01322,1.5 2.46769,0 3.15851,1.44855 1.19212,2.5 -1.75188,0.93676 -1.38248,5.09241 0.57791,6.5 0.95355,0.68469 1.73373,2.29896 1.73373,3.58726 0,2.72495 -4.01798,5.07688 -6.14203,3.5952 -0.75394,-0.52598 -3.68881,-1.28747 -6.52183,-1.6922 -2.83303,-0.40472 -6.55455,-1.6336 -8.26991,-2.73083 -1.71524,-1.09724 -3.66937,-1.70056 -4.34229,-1.34073 -0.67292,0.35984 -2.28275,-0.26216 -3.57738,-1.38223 C 403.07714,413.88089 400.53884,413 398.54471,413 c -1.93289,0 -5.01604,-0.96061 -6.85148,-2.13469 -1.83556,-1.17408 -4.09958,-1.88158 -5.0314,-1.57223 -1.75118,0.58141 -5.71369,-2.54713 -6.88569,-5.43664 -0.91322,-2.25144 -7.23602,-2.90972 -35.50821,-3.6968 -23.62162,-0.65762 -23.69548,-0.66673 -24.07296,-2.97079 -0.20828,-1.27113 -1.11849,-2.55678 -2.02269,-2.85699 -0.9042,-0.30021 -1.64404,-1.63958 -1.64404,-2.97637 0,-2.41889 -0.0509,-2.42916 -10.64199,-2.14302 -10.28068,0.27777 -10.66511,0.37238 -11.32635,2.78753 -0.56173,2.05145 -1.2692,2.43952 -3.94297,2.16289 -2.50559,-0.25922 -4.29515,0.53865 -7.7447,3.45295 -2.46732,2.08453 -4.48608,4.38785 -4.48608,5.11849 0,0.73064 -0.91021,1.60637 -2.02269,1.94607 -3.99035,1.21844 -7.22387,4.63545 -7.22387,7.63367 0,1.631 -0.72194,3.46505 -1.60417,4.07569 -2.37255,1.6422 -3.1844,10.34141 -1.03168,11.05611 2.62706,0.8722 3.79155,-0.2807 3.79248,-3.75489 6.9e-4,-2.25415 1.22124,-4.36533 4.15725,-7.19098 2.2861,-2.2 4.61334,-5.0125 5.17172,-6.25 0.6713,-1.48749 1.98119,-2.25 3.86529,-2.25 3.05958,0 5.1604,1.81297 3.31617,2.8618 -0.61709,0.35101 -1.46905,2.17917 -1.89324,4.06259 -0.42406,1.88341 -1.99263,5.70841 -3.48572,8.5 -3.40724,6.37033 -4.09715,18.53278 -1.26365,22.27438 2.16369,2.85699 1.32965,5.8879 -1.81627,6.59964 -1.70992,0.38689 -2.27326,1.37484 -2.27326,3.98665 0,2.89625 0.56138,3.67348 3.38389,4.68499 1.8611,0.66699 4.28232,2.07158 5.38035,3.12133 1.09803,1.04974 2.92527,1.90862 4.06063,1.90862 1.13536,0 2.387,0.45165 2.78125,1.00367 0.39437,0.55202 1.94271,0.73752 3.44077,0.41221 2.01448,-0.43744 3.06003,-0.0478 4.01521,1.49633 0.71024,1.14829 1.98962,2.08779 2.84296,2.08779 0.85335,0 2.19907,0.675 2.99046,1.5 0.79139,0.825 2.34216,1.5 3.44619,1.5 1.10404,0 4.29111,1.73598 7.08241,3.85773 2.7912,2.12175 6.24571,4.17723 7.67673,4.56772 1.43103,0.3905 3.13968,1.57952 3.7971,2.64227 0.65743,1.06276 1.85984,1.93228 2.67215,1.93228 0.81219,0 2.97173,1.35 4.79885,3 2.04765,1.84916 4.49187,3 6.37169,3 1.7587,0 4.19899,1.05839 5.76443,2.5 1.49297,1.375 3.94088,2.5 5.43975,2.5 1.49888,0 4.59243,0.675 6.87459,1.5 2.28218,0.825 6.88292,1.5 10.2237,1.5 3.98943,0 6.5683,-0.51486 7.5133,-1.5 0.97112,-1.01248 3.58132,-1.5 8.03076,-1.5 5.53696,0 7.02635,-0.4001 9.30655,-2.5 1.56533,-1.44161 4.00573,-2.5 5.76431,-2.5 1.87982,0 4.32416,-1.15084 6.37181,-3 1.82712,-1.65 4.0152,-3 4.86242,-3 0.84733,0 3.60027,-1.125 6.11788,-2.5 2.5175,-1.375 5.57222,-2.5 6.78825,-2.5 1.21604,0 2.51033,-0.675 2.87626,-1.5 0.36594,-0.825 1.65814,-1.5 2.87164,-1.5 1.21361,0 2.85395,-0.675 3.64534,-1.5 0.79139,-0.825 2.90481,-1.5 4.69656,-1.5 1.79176,0 3.57912,-0.45 3.9721,-1 0.39286,-0.55 2.44028,-1 4.54988,-1 2.10961,0 4.48321,-0.675 5.27459,-1.5 1.07989,-1.12582 3.98134,-1.5 11.63149,-1.5 5.60596,0 10.48503,0.40939 10.84252,0.90976 1.15329,1.61451 -0.6943,4.09024 -3.0524,4.09024 -2.66093,0 -6.61326,3.70395 -6.6692,6.25 -0.0219,1.0109 -0.92339,1.75 -2.13376,1.75 -1.15247,0 -3.59033,1.35 -5.41745,3 -1.82713,1.65 -3.89789,3 -4.60179,3 -0.70378,0 -3.51069,1.8 -6.23761,4 -2.72693,2.2 -5.63093,4 -6.4533,4 -0.82248,0 -2.14277,0.675 -2.93417,1.5 -0.79138,0.825 -1.98061,1.5 -2.64278,1.5 -2.04984,0 -10.07125,3.33913 -10.07125,4.19245 0,0.44415 -1.23661,0.80755 -2.74807,0.80755 -1.51136,0 -3.39546,0.675 -4.18685,1.5 -0.79139,0.825 -2.90493,1.5 -4.69668,1.5 -1.79175,0 -3.55877,0.4215 -3.92678,0.93668 -1.49321,2.0904 -8.26713,4.06332 -13.95111,4.06332 -3.95707,0 -6.53385,0.51696 -7.47677,1.5 -1.87532,1.95496 -13.38464,1.95496 -17.33732,0 -1.58925,-0.78602 -5.62018,-1.44508 -8.95761,-1.46456 -3.33743,-0.0195 -6.07141,-0.37294 -6.07545,-0.78544 -0.0115,-1.11317 -6.79473,-4.25 -9.19132,-4.25 -1.14206,0 -2.72392,-0.675 -3.51532,-1.5 -0.79138,-0.825 -2.9604,-1.5 -4.82,-1.5 -2.12186,0 -4.37848,-0.93109 -6.05916,-2.5 -1.47286,-1.375 -3.73284,-2.5 -5.02227,-2.5 -1.28943,0 -2.64383,-0.675 -3.00975,-1.5 -0.36582,-0.825 -1.65815,-1.5 -2.87164,-1.5 -1.2135,0 -2.85384,-0.675 -3.64523,-1.5 -0.79139,-0.825 -2.97369,-1.5 -4.84936,-1.5 -2.51669,0 -4.49835,-1.04836 -7.56092,-4 -3.20821,-3.09188 -4.99373,-4 -7.86467,-4 -2.04291,0 -4.36172,-0.675 -5.15311,-1.5 -0.7914,-0.825 -2.17814,-1.5 -3.08154,-1.5 -0.9035,0 -3.045,-1.125 -4.75897,-2.5 -1.71385,-1.375 -3.65574,-2.5 -4.31526,-2.5 -2.13157,0 -8.64901,-5.83057 -8.64901,-7.73757 0,-2.44142 -7.80167,-8.74697 -11.91778,-9.63232 -2.60649,-0.56066 -4.57809,0.0495 -9.97045,3.08552 -6.94476,3.91015 -10.47475,8.45899 -10.47475,13.49794 0,1.39785 -0.75255,3.0819 -1.67236,3.74235 -1.2477,0.89587 -1.81059,4.54562 -2.21651,14.37244 -0.29936,7.2444 -0.9012,15.32794 -1.33752,17.96342 -0.86952,5.25266 0.78619,10.17131 3.75572,11.15721 1.56013,0.51794 1.5184,0.8478 -0.32987,2.61479 -2.05933,1.96884 -2.04822,2.03719 0.42061,2.59578 3.06084,0.69251 3.15839,1.22603 0.52833,2.88988 -1.89659,1.19991 -1.88677,1.38517 0.17915,3.36024 1.20262,1.14968 3.57957,2.09032 5.28222,2.09032 1.90652,0 4.39061,1.14173 6.46681,2.97222 1.85417,1.63472 4.50146,2.98472 5.88302,3 1.38154,0.0153 4.05727,1.15278 5.946,2.52778 1.88872,1.375 4.19367,2.5 5.12201,2.5 0.92836,0 5.96809,3.6 11.19922,8 5.23113,4.4 10.18128,8 11.00018,8 0.8189,0 4.26937,2.475 7.6676,5.5 3.39822,3.025 7.00011,5.5 8.00417,5.5 1.00395,0 3.85698,1.8 6.34003,4 2.79154,2.47346 5.57452,4 7.29207,4 1.52764,0 4.7302,1.33799 7.11674,2.97331 4.15748,2.84892 4.86565,2.98144 16.92572,3.16744 7.44302,0.11479 12.92115,0.6331 13.40533,1.26833 0.56947,0.74715 1.25567,0.69617 2.25384,-0.16744 0.78931,-0.6829 2.89603,-1.24164 4.68143,-1.24164 1.7855,0 5.40034,-1.35 8.03307,-3 2.63261,-1.65 5.68513,-3 6.7834,-3 1.09813,0 2.6044,-0.63355 3.34713,-1.40789 0.74285,-0.77433 3.01704,-2.13677 5.05383,-3.02764 2.03679,-0.89087 4.48342,-1.99339 5.43698,-2.45005 2.58488,-1.23792 9.5791,-4.36743 11.55821,-5.17164 0.95356,-0.38747 4.19251,-1.68459 7.19764,-2.88248 3.00525,-1.19789 5.76651,-2.6015 6.13625,-3.11914 0.36975,-0.51764 2.7593,-0.94116 5.30996,-0.94116 2.55067,0 5.28638,-0.5625 6.07927,-1.25 2.38654,-2.06938 14.75336,-1.00851 18.42378,1.58048 3.91616,2.7623 2.57852,4.93726 -3.1421,5.10914 -2.27291,0.0683 -4.76613,0.67231 -5.54042,1.34227 -0.7744,0.66996 -2.2468,1.21811 -3.27213,1.21811 -1.02533,0 -3.35916,1.35 -5.18628,3 -1.82712,1.65 -4.00631,3 -4.84255,3 -0.83635,0 -3.40008,1.8 -5.69738,4 -2.29731,2.2 -4.73228,4 -5.41121,4 -2.23073,0 -10.86252,4.00963 -12.97085,6.02523 -1.13605,1.08612 -2.96156,1.97477 -4.05659,1.97477 -1.09502,0 -2.63839,0.675 -3.42978,1.5 -0.79139,0.825 -2.41544,1.5 -3.60905,1.5 -1.1935,0 -2.17005,0.45 -2.17005,1 0,0.55 -1.75673,1 -3.9039,1 -2.14706,0 -4.55128,0.675 -5.34267,1.5 -0.98199,1.02365 -3.60777,1.5 -8.26863,1.5 -5.00459,0 -7.00739,0.40084 -7.49491,1.5 -0.55157,1.24345 -3.70869,1.5 -18.45985,1.5 l -17.79455,0 -4.17691,-4 c -2.29731,-2.2 -5.09289,-4 -6.21253,-4 -1.11954,0 -2.68302,-0.675 -3.47441,-1.5 -0.79138,-0.825 -2.31337,-1.5 -3.38227,-1.5 -2.39925,0 -9.33176,-6.03473 -9.33176,-8.12329 0,-1.84438 -4.73505,-5.87671 -6.90083,-5.87671 -0.85276,0 -3.58997,-1.8 -6.08251,-4 -2.49252,-2.2 -5.19217,-4 -5.99916,-4 -2.8328,0 -8.22367,-2.93882 -12.74824,-6.94977 C 263.79148,564.8226 260.86448,563 259.79998,563 c -1.06463,0 -2.55738,-0.64825 -3.31744,-1.44056 -0.76008,-0.79231 -2.01575,-1.2301 -2.7905,-0.97287 -0.77487,0.25723 -2.57275,-0.89452 -3.99556,-2.55944 C 248.27378,556.36221 246.29016,555 245.28852,555 c -1.00174,0 -3.36655,-1.125 -5.25528,-2.5 -1.88872,-1.375 -4.07704,-2.5 -4.86288,-2.5 -0.78584,0 -2.92365,-1.35 -4.75077,-3 -2.79015,-2.51966 -4.21274,-3 -8.88491,-3 -5.50171,0 -5.56308,0.0357 -5.58135,3.25 -0.0127,2.16503 -1.16426,4.37467 -3.4507,6.61892 -1.8878,1.85291 -3.18545,3.71442 -2.88389,4.1367 0.30167,0.42227 -0.22596,1.32385 -1.17247,2.00352 -0.94661,0.67966 -1.72101,2.02555 -1.72101,2.99086 0,0.96531 -0.79093,2.32303 -1.75765,3.01716 -1.48396,1.06549 -1.70888,4.30925 -1.44478,20.82808 l 0.31288,19.56604 2.88955,0.59211 c 1.84215,0.3775 2.89047,1.28943 2.89221,2.51599 0.001,1.05813 1.19119,2.43655 2.64394,3.06315 1.45264,0.6266 3.82554,2.10187 5.27297,3.27837 1.44743,1.17651 3.55716,2.1391 4.68813,2.1391 1.13108,0 2.33891,0.93452 2.68415,2.07672 0.34525,1.1422 1.78505,2.45743 3.19955,2.92273 1.41461,0.4653 3.60431,2.56828 4.86624,4.67328 1.26181,2.105 3.28415,3.99369 4.49395,4.19709 2.81557,0.47336 10.86298,5.31868 18.90091,11.38018 3.46434,2.6125 6.86683,4.75 7.56125,4.75 2.30749,0 12.14537,8.49038 12.17981,10.51153 0.0346,2.04477 6.0446,8.48847 7.91691,8.48847 0.57665,0 1.3478,-0.675 1.71374,-1.5 0.84734,-1.91055 4.26868,-1.92574 7.16285,-0.0318 1.23408,0.8075 3.43025,1.4825 4.88046,1.5 1.45032,0.0175 2.93635,0.7068 3.30217,1.5318 0.36594,0.825 1.54592,1.5 2.62222,1.5 1.07618,0 2.53448,0.49985 3.24057,1.11078 1.58614,1.37225 29.29937,1.22912 30.90445,-0.15961 0.60461,-0.52314 3.02016,-0.95117 5.36787,-0.95117 2.72796,0 4.50851,-0.54136 4.93374,-1.5 0.36592,-0.825 1.65814,-1.5 2.87163,-1.5 1.21362,0 2.85396,-0.675 3.64534,-1.5 0.7914,-0.825 2.33546,-1.5 3.4314,-1.5 2.65909,0 9.28263,-2.90639 9.28263,-4.07324 0,-0.50972 1.24459,-0.92676 2.76589,-0.92676 1.52117,0 3.06523,-0.675 3.43117,-1.5 0.36593,-0.825 1.65814,-1.5 2.87163,-1.5 1.21361,0 2.85396,-0.675 3.64534,-1.5 1.01782,-1.06113 3.71227,-1.5 9.20889,-1.5 6.26039,0 8.17015,0.38242 9.82887,1.96823 1.98789,1.90042 1.94421,2.08745 -1.26562,5.42781 -2.4411,2.54039 -4.28487,3.47875 -6.93932,3.53176 -1.98813,0.0397 -4.26232,0.7472 -5.05371,1.5722 -0.86652,0.90328 -3.39545,1.5 -6.35701,1.5 -2.96169,0 -5.49061,0.59672 -6.35702,1.5 -0.86143,0.89797 -3.38876,1.5 -6.29715,1.5 -3.68764,0 -5.51222,0.60236 -7.57271,2.5 -1.7818,1.64095 -3.96619,2.5 -6.35701,2.5 -2.39081,0 -4.5752,0.85905 -6.35701,2.5 -1.68125,1.54828 -3.98632,2.5 -6.05523,2.5 -2.26945,0 -4.24753,0.93252 -6.16896,2.90812 -2.28229,2.34673 -3.99706,3.00258 -8.88295,3.39742 -3.33003,0.26911 -8.39518,0.9462 -11.25584,1.50465 -3.55982,0.69494 -5.65717,0.68867 -6.64597,-0.0199 -1.00303,-0.71866 -1.92814,-0.68821 -3.02525,0.0996 -1.20205,0.86313 -1.92756,0.77275 -3.03102,-0.37756 C 300.71649,686.68055 298.51177,686 296.61506,686 c -2.02222,0 -5.19044,-1.16999 -7.6602,-2.82883 -2.91729,-1.95943 -6.79045,-3.2386 -12.60214,-4.16214 -7.02959,-1.11709 -9.16959,-1.95574 -13.19532,-5.17118 C 260.51474,671.72703 257.70517,670 256.91389,670 c -0.79128,0 -2.75166,-1.35 -4.3564,-3 -1.60474,-1.65 -3.67158,-3 -4.59312,-3 -0.92143,0 -2.52732,-1.125 -3.56871,-2.5 -1.04128,-1.375 -2.67781,-2.5 -3.63668,-2.5 -0.95886,0 -2.051,-0.7875 -2.42688,-1.75 -2.04025,-5.22272 -4.62836,-9.20144 -6.00044,-9.2242 -2.09944,-0.0348 -8.62357,-3.22355 -9.7713,-4.7758 -1.46674,-1.98355 -8.62786,-1.55883 -9.95741,0.59057 -0.62622,1.01231 -2.68566,3.27352 -4.5767,5.0249 -5.51489,5.10785 -8.46893,15.08757 -8.65617,29.24407 l -0.15766,11.91324 7.22389,5.56849 c 3.97313,3.06267 7.22387,5.97194 7.22387,6.46505 0,1.31172 10.85525,10.94368 12.33354,10.94368 0.69164,0 3.36182,1.76686 5.93387,3.92637 2.68254,2.25238 6.06459,4.06434 7.93251,4.25 2.20657,0.21929 3.74532,1.21021 4.77273,3.07363 0.85832,1.55643 2.45751,2.75 3.68464,2.75 1.3685,0 2.30436,0.82985 2.53749,2.25 0.28283,1.72274 1.31729,2.36717 4.41477,2.75 3.13193,0.3871 4.13067,1.0208 4.42322,2.8065 0.20781,1.26858 1.52949,2.76045 2.93693,3.31528 1.40745,0.55483 3.05785,1.92597 3.66743,3.04698 2.83372,5.21038 29.66437,12.54272 32.3157,8.83124 0.39287,-0.55 3.48053,-1 6.86153,-1 4.05428,0 6.63719,-0.51073 7.58624,-1.5 0.79138,-0.825 2.61978,-1.5 4.06317,-1.5 1.44339,0 2.92376,-0.675 3.2897,-1.5 0.41216,-0.92925 2.17132,-1.5 4.62328,-1.5 2.45195,0 4.21112,-0.57075 4.62328,-1.5 0.36594,-0.825 1.95126,-1.5 3.52294,-1.5 1.57169,0 3.17898,-0.45 3.57195,-1 0.39287,-0.55 3.74059,-1 7.43944,-1 4.56792,0 7.18678,-0.48117 8.16414,-1.5 0.81151,-0.84602 3.33108,-1.5 5.77911,-1.5 2.44791,0 4.96748,-0.65398 5.77911,-1.5 1.03596,-1.08002 3.77664,-1.5 9.78841,-1.5 8.12785,0 15.63964,-1.9564 15.63964,-4.07324 0,-0.50972 1.07376,-0.92676 2.38619,-0.92676 1.31243,0 3.6992,-1.35 5.30395,-3 1.60474,-1.65 3.6628,-3 4.57346,-3 0.91067,0 2.2482,-1.125 2.97231,-2.5 0.72413,-1.375 1.99992,-2.5 2.83512,-2.5 0.83519,0 2.32539,-1.35 3.31165,-3 0.98615,-1.65 2.29986,-3 2.91915,-3 0.6194,0 1.12623,-1.07686 1.12623,-2.39301 0,-1.31616 0.66864,-2.61501 1.4858,-2.88634 2.01761,-0.66983 1.91393,-28.17924 -0.11326,-29.9327 -2.07701,-1.79705 -1.78853,-14.57132 0.37136,-16.44 0.95933,-0.83005 1.50025,-1.85092 1.20182,-2.26859 -0.74909,-1.04876 11.31445,-11.85021 14.60507,-13.07705 3.38632,-1.26252 6.19913,-2.791 11.50608,-6.25231 2.31893,-1.5125 4.95963,-2.75 5.86834,-2.75 2.44213,0 14.77462,-10.78437 14.77462,-12.91989 0,-1.00937 0.78018,-2.39542 1.73373,-3.08011 2.49207,-1.78941 2.46075,-28.58429 -0.037,-31.44113 -0.93333,-1.06762 -1.71351,-2.86762 -1.73373,-4 -0.0197,-1.13238 -0.80041,-2.93238 -1.73374,-4 -1.12784,-1.29001 -1.69697,-4.35981 -1.69697,-9.15176 l 0,-7.21062 17.33731,-14.82906 c 9.53552,-8.15599 17.33732,-15.54101 17.33732,-16.41116 0,-0.87015 1.56034,-2.87547 3.46745,-4.45627 1.90711,-1.5808 3.46747,-3.41355 3.46747,-4.07278 0,-0.65924 0.77694,-2.48754 1.72656,-4.06291 2.20485,-3.65768 2.20739,-6.81777 0.0115,-8.72145 -0.95355,-0.825 -1.73374,-2.34614 -1.73374,-3.3803 0,-1.03417 -0.76364,-2.75381 -1.69697,-3.82143 -0.93333,-1.06762 -1.7135,-2.91716 -1.73373,-4.11009 -0.0358,-2.11709 -0.47296,-3.03165 -5.89365,-12.33104 -3.42492,-5.87572 -7.8894,-10.48816 -10.20831,-10.54671 -1.05689,-0.0267 -1.6422,-0.66972 -1.36538,-1.5 0.26665,-0.79931 0.71129,-3.25329 0.98835,-5.45329 0.54542,-4.3324 4.10293,-8.5 7.25566,-8.5 1.08277,0 2.61608,-0.675 3.40747,-1.5 0.7914,-0.825 2.22577,-1.5 3.18752,-1.5 0.96177,0 2.95371,-1.125 4.42656,-2.5 1.47287,-1.375 3.49579,-2.5 4.49545,-2.5 0.99968,0 2.28692,-1.06798 2.86043,-2.37329 0.57525,-1.30901 2.38354,-2.66438 4.03232,-3.02242 2.44144,-0.53016 2.86481,-1.0784 2.3099,-2.99118 -0.46521,-1.60371 -0.10521,-2.5325 1.14034,-2.94619 1.00082,-0.33228 1.81972,-1.23817 1.81972,-2.01309 0,-0.77492 0.78018,-1.96914 1.73373,-2.65383 0.95356,-0.68469 1.73373,-2.77891 1.73373,-4.65383 0,-2.10768 0.66183,-3.62866 1.73374,-3.98454 1.14576,-0.38038 1.74621,-1.98077 1.77048,-4.71862 0.0196,-2.27865 0.8004,-5.01652 1.73373,-6.08414 1.74667,-1.99794 2.27073,-9.93237 1.0029,-15.18387 -0.61478,-2.54657 -6.88175,-7.375 -9.57216,-7.375 -0.47272,0 -2.3544,-1.35 -4.18153,-3 -1.82712,-1.65 -3.97891,-3 -4.78162,-3 -0.80284,0 -4.47638,-1.57384 -8.16345,-3.49743 -3.68718,-1.92359 -7.26341,-3.49859 -7.9472,-3.5 -1.85497,-0.004 -6.26951,-4.3947 -6.26951,-6.23598 0,-3.13365 -3.95672,-7.75373 -6.64597,-7.76027 -1.68866,-0.004 -2.61412,-0.61997 -2.63909,-1.75632 -0.0659,-2.99894 -4.10398,-6.25 -7.76307,-6.25 -2.48964,0 -3.73399,-0.66157 -4.70211,-2.5 -0.72412,-1.375 -2.01067,-2.5 -2.85892,-2.5 -0.84826,0 -3.05877,-1.36949 -4.91224,-3.04331 l -3.37002,-3.0433 -33.46529,0.18352 -33.46541,0.18353 -2.38978,-2.54011 c -1.31439,-1.39707 -3.40736,-2.70003 -4.65078,-2.89547 -1.27626,-0.20058 -2.5546,-1.44197 -2.93498,-2.85011 -0.52255,-1.93395 -1.52129,-2.56603 -4.44322,-2.81186 -2.59851,-0.21863 -4.07518,-0.99499 -4.75481,-2.5 -1.67582,-3.71104 -8.87451,-9.01252 -11.44736,-8.43041 -1.54198,0.34888 -3.3461,-0.42848 -5.49212,-2.36647 C 347.65195,321.31172 346.53208,321 340.13392,321 c -5.30973,0 -7.34583,-0.38964 -7.83832,-1.5 -0.53711,-1.21122 -3.18672,-1.5 -13.76236,-1.5 -8.37901,0 -13.57893,-0.41701 -14.43505,-1.15762 -1.01342,-0.87682 -1.79314,-0.83078 -3.21456,0.18984 -1.57401,1.1302 -2.28067,1.129 -4.38323,-0.007 -3.28808,-1.77718 -9.6504,-2.35069 -10.64418,-0.95947 -0.43112,0.60347 0.57329,2.32278 2.23201,3.82068 1.65871,1.4979 3.01588,3.48633 3.01588,4.41874 0,0.9324 0.50671,1.69528 1.12612,1.69528 0.6194,0 1.91253,1.31583 2.87383,2.92406 0.96118,1.60823 2.64082,3.07287 3.73249,3.25476 1.40259,0.23371 2.06858,1.46349 2.27038,4.19272 0.15708,2.1241 1.09133,4.63239 2.07631,5.57397 0.98488,0.94159 1.79072,2.68904 1.79072,3.88323 0,1.19419 0.52012,2.17126 1.15582,2.17126 0.6357,0 1.15582,0.675 1.15582,1.5 0,2.78811 -5.7353,1.59345 -12.00181,-2.5 -3.36794,-2.2 -6.67498,-4 -7.34905,-4 -1.61943,0 -6.07719,-6.60037 -6.07719,-8.99814 0,-1.03611 -0.52013,-2.16194 -1.15583,-2.50186 -0.6357,-0.33992 -1.15581,-1.44333 -1.15581,-2.45203 0,-1.0087 -0.73985,-2.07962 -1.64416,-2.37983 -0.9042,-0.30021 -1.81441,-1.58586 -2.02269,-2.85699 -0.28028,-1.71166 -1.12866,-2.3116 -3.26809,-2.3116 -2.73802,0 -2.90769,0.32862 -3.23409,6.26294 -0.2707,4.92195 0.0381,6.39014 1.44477,6.85699 1.11051,0.36868 1.78932,1.83481 1.78932,3.86461 0,1.79882 0.78019,3.83077 1.73374,4.51546 0.95355,0.68469 1.73373,2.69764 1.73373,4.47322 0,3.83717 2.01853,9.40294 4.20903,11.60552 0.86352,0.86831 1.57008,3.00581 1.57008,4.75 0,2.61397 -0.4532,3.17126 -2.57852,3.17126 -2.74046,0 -12.44715,-8.15837 -12.44715,-10.46169 0,-0.71138 -0.78019,-1.85362 -1.73374,-2.53831 -0.95355,-0.68469 -1.73373,-2.06323 -1.73373,-3.06343 0,-1.00019 -0.48717,-2.07904 -1.08265,-2.39743 -1.54095,-0.82393 -4.69646,-6.53626 -4.69646,-8.50165 0,-0.91038 -0.76364,-2.52874 -1.69697,-3.59636 -0.93333,-1.06762 -1.7135,-3.34853 -1.73373,-5.06869 -0.0197,-1.72015 -0.81694,-3.68775 -1.77049,-4.37244 -1.03481,-0.74303 -1.73373,-2.92901 -1.73373,-5.42244 0,-2.29766 -0.47134,-4.60506 -1.04729,-5.12756 -0.91113,-0.82646 -2.46618,-18.2237 -2.54303,-28.45 -0.0671,-8.97249 1.37438,-23.48287 2.42364,-24.39065 0.6417,-0.55514 1.16668,-4.01425 1.16668,-7.68691 0,-4.71565 0.50938,-7.04331 1.73373,-7.92244 0.95355,-0.68469 1.73373,-2.70969 1.73373,-4.5 0,-1.79031 0.78018,-3.81531 1.73374,-4.5 0.95355,-0.68469 1.73372,-2.48469 1.73372,-4 0,-1.51531 0.74227,-3.28808 1.64936,-3.93948 1.08219,-0.77699 1.44085,-2.29692 1.04278,-4.41883 -0.42025,-2.24111 -0.0393,-3.64172 1.2402,-4.56052 1.11537,-0.80094 1.84677,-2.874 1.84677,-5.235 0,-2.55212 0.60172,-4.10874 1.73373,-4.48454 0.95355,-0.31659 1.73374,-1.61496 1.73374,-2.88529 0,-1.27032 0.57524,-2.4756 1.27856,-2.6784 0.7032,-0.2028 1.48558,-1.90722 1.73859,-3.78759 0.25301,-1.88037 0.97805,-3.86694 1.61098,-4.4146 0.63304,-0.54766 1.15096,-2.43261 1.15096,-4.18876 0,-1.91574 0.6935,-3.42327 1.73374,-3.76862 0.95355,-0.31658 1.75026,-1.60222 1.77049,-2.85699 0.0208,-1.25476 0.8004,-3.15489 1.73372,-4.22251 0.93333,-1.06762 1.69699,-2.94262 1.69699,-4.16667 0,-1.22404 0.62228,-2.405 1.38281,-2.62434 0.85878,-0.24767 1.28008,-2.11565 1.11178,-4.92926 -0.18457,-3.08561 0.2959,-4.93757 1.50674,-5.80698 0.9777,-0.70208 1.77776,-2.06631 1.77776,-3.03162 0,-0.96531 0.78019,-2.31531 1.73374,-3 1.0348,-0.74303 1.73373,-2.92901 1.73373,-5.42244 0,-2.29766 0.65015,-4.73934 1.44478,-5.42596 1.05445,-0.9112 1.54671,-7.81195 1.82215,-25.54886 0.31669,-20.38721 0.0843,-24.908097 -1.44478,-28.073727 -1.08543,-2.24772 -1.82215,-6.67889 -1.82215,-10.96001 0,-4.77095 -0.57052,-7.83925 -1.69697,-9.12787 -0.93333,-1.067633 -1.71352,-3.130493 -1.73374,-4.584153 -0.0196,-1.45365 -0.84132,-2.91011 -1.82457,-3.23656 -1.32307,-0.43927 -1.71479,-1.81472 -1.50674,-5.29152 0.17649,-2.94995 -0.23348,-4.84635 -1.10173,-5.09677 -0.76053,-0.21934 -1.38281,-1.37806 -1.38281,-2.57492 0,-1.19687 -0.93726,-2.68251 -2.08268,-3.30143 -1.14554,-0.61892 -2.80091,-3.00815 -3.67875,-5.30939 -1.03342,-2.70911 -2.70069,-4.67827 -4.72951,-5.58598 -1.78781,-0.79989 -3.062,-2.16575 -2.96721,-3.18067 0.10633,-1.13992 -0.76782,-1.89372 -2.4344,-2.09881 -1.6342,-0.20111 -2.60059,-1.01251 -2.60059,-2.18354 0,-1.81208 -8.9338,-8.99739 -11.18684,-8.99739 -0.61837,0 -2.34585,-1.125 -3.83883,-2.5 -1.49309,-1.375 -3.68048,-2.5 -4.86103,-2.5 -1.18056,0 -2.44584,-0.675 -2.81177,-1.5 -0.53977,-1.21699 -3.25884,-1.5 -14.41147,-1.5 -12.67682,0 -13.74617,0.14606 -13.74617,1.87755 0,1.03266 -0.78019,2.43776 -1.73374,3.12245 -0.95356,0.68468 -1.73373,2.03468 -1.73373,3 0,0.96531 -0.78017,2.31531 -1.73373,3 -1.22736,0.88127 -1.73374,3.21384 -1.73374,7.98595 0,3.70759 -0.56762,9.16499 -1.26146,12.12756 -0.70482,3.00992 -1.40859,19.50518 -1.59514,37.386493 -0.21487,20.601977 -0.79486,33.002697 -1.62821,34.815097 -0.71187,1.5483 -1.29428,7.01266 -1.29428,12.14301 0,7.36899 -0.36409,9.44879 -1.73374,9.90352 -1.07411,0.35658 -1.73373,1.87858 -1.73373,4 0,2.12141 -0.65974,3.64341 -1.73373,4 -0.95355,0.31658 -1.73374,1.73056 -1.73374,3.14217 0,1.41161 -0.8234,3.6537 -1.82965,4.98242 -1.10624,1.46074 -1.522,3.25424 -1.05157,4.53648 0.50417,1.37432 0.0763,2.79137 -1.21569,4.02652 -1.44501,1.38149 -1.82909,2.9667 -1.39589,5.76122 0.47031,3.03383 0.14101,4.10209 -1.54579,5.01346 -1.23165,0.66548 -1.85926,1.79889 -1.47541,2.66439 0.40812,0.92002 -0.70251,2.54677 -2.85337,4.17975 -2.80102,2.12648 -3.3921,3.23354 -2.88886,5.41052 0.4903,2.12113 0.0647,3.00004 -1.89174,3.90592 -1.55445,0.71978 -2.26679,1.74992 -1.85381,2.68105 0.36893,0.83167 -0.3709,2.65785 -1.64404,4.05816 -1.27315,1.40032 -2.31477,3.36298 -2.31477,4.36148 0,0.9985 -0.67823,2.17531 -1.50719,2.61514 -0.82895,0.43983 -2.36076,2.37469 -3.40412,4.29969 -1.04335,1.925 -4.52608,5.69417 -7.73938,8.37594 -3.21341,2.68176 -5.84244,5.71926 -5.84244,6.75 0,1.03073 -0.51319,1.87406 -1.14044,1.87406 -0.62715,0 -3.55197,3.59093 -6.49942,7.97985 -2.94757,4.38892 -6.07522,8.49402 -6.95041,9.12245 -0.8752,0.62842 -1.59122,1.83485 -1.59122,2.68095 0,0.84609 -3.38077,4.43473 -7.51284,7.97474 -4.13206,3.54001 -7.51284,7.01255 -7.51284,7.71675 0,0.70421 -0.78017,1.84057 -1.73372,2.52526 -0.95356,0.68469 -1.73373,1.81579 -1.73373,2.51356 0,0.69777 -2.08048,3.44692 -4.62328,6.10923 -2.54281,2.6623 -4.6233,5.30935 -4.6233,5.88234 0,1.2916 -17.540382,16.47957 -19.096694,16.53548 -0.621597,0.0223 -2.774321,1.70983 -4.783713,3.75 -2.00951,2.04016 -6.040437,6.08691 -8.957613,8.99277 -2.917291,2.90586 -5.329605,5.83086 -5.360812,6.5 -0.0312,0.66914 -2.107987,3.01662 -4.615077,5.21662 -2.507091,2.2 -4.562025,4.53888 -4.566533,5.19752 0,0.65863 -4.42922,5.03113 -9.832679,9.71667 -5.403463,4.68554 -9.824513,8.95797 -9.824513,9.49429 0,0.53633 -2.600597,3.54634 -5.779103,6.68892 -3.178508,3.14258 -5.779105,6.26366 -5.779105,6.93574 0,0.67209 -0.780179,1.78217 -1.733731,2.46686 -0.953552,0.68469 -1.733731,2.24565 -1.733731,3.46881 0,1.22315 -0.834572,3.67131 -1.854595,5.44035 -1.020035,1.76905 -1.611723,4.31572 -1.314862,5.65928 0.321537,1.45523 -0.266232,3.24685 -1.453826,4.43156 -1.206989,1.20405 -1.776219,2.97244 -1.442708,4.48192 0.373157,1.68889 -0.05097,2.69303 -1.314849,3.11263 -1.190843,0.39536 -1.865727,1.80248 -1.865727,3.88999 0,1.79882 -0.780178,3.83077 -1.733731,4.51546 -1.362134,0.97807 -1.733731,3.77801 -1.733731,13.06343 0,6.80033 -0.490773,12.08096 -1.155821,12.43657 -0.6360824,0.34012 -1.1778276,4.97577 -1.20477,10.30902 -0.047964,9.49536 -0.1179506,9.7405 -3.467462,12.14407 -4.3013527,3.0866 -4.2846389,4.42941 0.1089934,8.75891 4.057787,3.99851 3.9388066,5.65612 -0.4381828,6.10442 -3.0135602,0.30866 -3.0893707,0.48514 -3.0893707,7.19099 0,3.781 -0.4900673,7.1366 -1.0890369,7.45688 -0.59898127,0.32028 -1.44822014,2.65459 -1.88722408,5.18736 -0.57340352,3.30827 -1.40945462,4.74335 -2.96896842,5.09619 -1.1939406,0.27013 -2.4561543,1.67487 -2.8049119,3.12165 -0.3487575,1.44678 -1.126567,3.30551 -1.7284493,4.13051 -0.6018822,0.825 -1.3982428,2.175 -1.7696893,3 -0.371457,0.825 -1.1553,2.4 -1.741891,3.5 -0.58659,1.1 -1.290739,4.65253 -1.564785,7.8945 -0.274033,3.24198 -1.04723,6.36948 -1.718208,6.95 -0.670989,0.58053 -1.219968,3.16406 -1.219968,5.74119 0,2.57713 -0.776978,5.97463 -1.726613,7.55 -1.1464,1.90179 -1.729003,5.80995 -1.733731,11.63006 -0.0035,4.82116 -0.653882,10.55866 -1.444359,12.75 C -22.629489,554.84264 -22.880568,555 -27.606026,555 l -4.919774,0 0,-6.39301 c 0,-4.76019 0.442806,-6.54003 1.733731,-6.96862 1.32961,-0.44143 1.733731,-2.3384 1.733731,-8.13837 0,-5.79997 0.40411,-7.69694 1.733731,-8.13837 1.145708,-0.38038 1.746191,-1.98077 1.770487,-4.71862 0.02023,-2.27865 0.800394,-5.01652 1.733731,-6.08414 0.933337,-1.06762 1.696976,-2.75512 1.696976,-3.75 0,-0.99488 0.520119,-1.80887 1.155821,-1.80887 0.635701,0 1.172361,-1.0125 1.192576,-2.25 0.02023,-1.2375 0.800394,-3.12351 1.733731,-4.19113 0.933337,-1.06762 1.696977,-2.68325 1.696977,-3.59028 0,-2.24647 6.8836292,-14.01451 8.5137406,-14.55481 0.9495994,-0.31475 1.2184546,-9.41777 0.9758245,-33.03896 -0.2876839,-28.00705 -0.083914,-32.93588 1.4447767,-34.95449 1.2660746,-1.67178 1.7796864,-4.92212 1.7796864,-11.2627 0,-6.82185 0.4193553,-9.21386 1.7875926,-10.19631 1.28511087,-0.92276 1.7217913,-2.86143 1.55348088,-6.89678 -0.12877035,-3.08726 0.36711158,-6.58517 1.10194818,-7.77313 0.73484724,-1.18796 1.33608204,-3.03441 1.33608204,-4.10322 0,-1.06882 0.7801797,-2.5035 1.7337321,-3.18819 0.9535513,-0.68469 1.733731,-2.67878 1.733731,-4.43132 0,-1.75253 0.7636385,-4.05993 1.6969647,-5.12755 0.9333369,-1.06762 1.7135155,-2.89853 1.733731,-4.06869 0.020226,-1.17015 0.8112129,-2.68364 1.7577723,-3.3633 0.946548,-0.67967 1.405224,-1.67781 1.019272,-2.2181 -0.385952,-0.54029 0.920079,-2.26394 2.902277,-3.83032 1.98221,-1.56639 3.604012,-3.77335 3.604012,-4.90435 0,-1.131 0.495708,-2.05637 1.10159,-2.05637 0.605881,0 1.930173,-1.5107 2.942881,-3.35711 1.012695,-1.84641 3.377643,-4.6306 5.255413,-6.18709 1.877781,-1.55649 3.414144,-3.59069 3.414144,-4.52045 0,-0.92975 0.78018,-2.25066 1.733731,-2.93535 0.953553,-0.68469 1.733733,-1.85622 1.733733,-2.60339 0,-0.74718 1.300298,-1.64086 2.889551,-1.98597 1.961868,-0.42601 2.889587,-1.31804 2.889587,-2.7785 0,-1.18308 1.033303,-2.70935 2.296154,-3.39172 1.262849,-0.68237 3.020044,-2.73952 3.904709,-4.57144 0.884665,-1.83192 4.065485,-5.31936 7.068303,-7.74987 3.002822,-2.43051 6.401282,-5.99411 7.552134,-7.91911 1.150851,-1.925 3.958455,-5.05078 6.239121,-6.94617 2.280665,-1.89539 4.146737,-4.13106 4.146737,-4.96816 0,-0.8371 1.207025,-2.43632 2.682427,-3.55383 1.475407,-1.11751 3.685917,-3.56165 4.912243,-5.43142 1.226325,-1.86977 4.438237,-5.24477 7.137427,-7.5 2.69919,-2.25523 4.9097,-4.61117 4.912243,-5.23541 0,-0.62424 1.30492,-1.87212 2.894173,-2.77305 1.589252,-0.90094 2.889553,-2.1935 2.889553,-2.87237 0,-1.25286 7.68123,-9.46682 18.75099,-20.05136 3.35454,-3.20747 6.96995,-7.187 8.03435,-8.8434 1.06451,-1.6564 4.44528,-5.17287 7.51283,-7.81438 3.06766,-2.64151 6.55328,-6.39806 7.74573,-8.34791 1.19258,-1.94984 2.88296,-3.78245 3.75642,-4.07246 0.87357,-0.29002 1.58833,-1.3692 1.58833,-2.39818 0,-1.02898 1.3003,-2.38345 2.88955,-3.00995 1.58925,-0.62649 2.88956,-1.73239 2.88956,-2.45756 0,-0.72517 2.08047,-3.07615 4.62328,-5.22439 2.5428,-2.14824 4.62328,-4.47571 4.62328,-5.17215 0,-2.17944 4.52377,-8.89231 7.50254,-11.13318 1.57828,-1.18734 2.56732,-2.78082 2.21652,-3.57155 -0.54265,-1.22351 1.70357,-6.28056 5.16283,-11.62312 3.93949,-6.08444 4.76707,-8.40116 4.76707,-13.34528 0,-3.04518 0.52012,-5.8148 1.15581,-6.15472 0.6357,-0.33992 1.15583,-2.18093 1.15583,-4.09114 0,-1.9102 0.78017,-5.0886 1.73373,-7.0631 1.19362,-2.47177 1.73373,-7.10667 1.73373,-14.87992 0,-6.20945 0.78006,-14.81699 1.7335,-19.127867 1.29787,-5.86836 1.73361,-15.28227 1.73373,-37.462253 1.2e-4,-24.4721 0.3175,-30.38529 1.82458,-34 1.15593,-2.77226 1.60463,-6.07807 1.22459,-9.0213 -0.57375,-4.44354 -0.37171,-4.84582 4.64686,-9.25 C 198.81755,5.07199 202.18365,3 203.41216,3 c 1.22853,0 2.5331,-0.675 2.89892,-1.5 0.54001,-1.2173 3.263,-1.5 14.44776,-1.5 11.18488,0 13.90788,0.2827 14.44777,1.5 0.37482,0.84507 2.0955,1.5 3.94088,1.5 1.80158,0 3.59703,0.45 3.99001,1 0.39286,0.55 1.68669,1 2.87522,1 1.18841,0 2.94099,0.675 3.89454,1.5 0.95355,0.825 2.4263,1.5 3.27294,1.5 0.84652,0 2.83407,1.01439 4.41684,2.25421 3.12558,2.44838 6.70377,4.72859 12.14456,7.73912 1.9182,1.06142 5.01811,4.19713 6.8887,6.96826 1.87069,2.77112 3.81201,5.03841 4.3141,5.03841 0.5022,0 0.91309,0.86226 0.91309,1.91614 0,1.05388 2.08048,3.84647 4.62329,6.20576 2.5428,2.35929 4.62329,4.62704 4.62329,5.03945 0,0.4124 1.34213,2.45731 2.98247,4.54424 5.50309,7.00096 8.73442,14.16926 7.37669,16.36418 -1.4152,2.28781 -0.5904,3.93023 1.97379,3.93023 1.40721,0 1.63826,0.71856 1.07156,3.33245 -0.56196,2.59146 -0.20505,3.7377 1.60508,5.154983 1.63942,1.28361 2.32772,3.08274 2.32772,6.08422 0,2.46756 0.59432,4.4331 1.41183,4.66887 0.82745,0.23863 1.42559,2.27932 1.44478,4.92975 0.0184,2.48741 0.62229,5.15417 1.34271,5.92614 4.45755,4.776807 5.4823,37.280487 1.63479,51.855297 -1.24111,4.70156 -2.89648,11.45848 -3.67862,15.01537 -0.96199,4.37476 -2.28864,7.1619 -4.10039,8.61467 -1.47322,1.18118 -2.67838,2.67432 -2.67838,3.3181 0,0.64379 -0.84399,2.28494 -1.87556,3.64701 -1.13421,1.49759 -1.63132,3.5589 -1.25764,5.21482 0.46405,2.05714 -0.21949,3.59958 -2.74786,6.20055 -1.88479,1.93889 -3.36552,4.64173 -3.36552,6.14301 0,1.47443 -0.78017,2.9398 -1.73372,3.25639 -0.95356,0.31658 -1.73373,1.68817 -1.73373,3.04797 0,1.3598 -0.52013,2.75048 -1.15583,3.0904 -0.6357,0.33992 -1.15581,1.88638 -1.15581,3.43657 0,1.5502 -0.78019,3.37874 -1.73374,4.06343 -0.95356,0.68469 -1.73373,2.48469 -1.73373,4 0,1.51531 -0.78018,3.31531 -1.73373,4 -1.00059,0.71842 -1.73374,2.89959 -1.73374,5.15763 0,2.152 -0.82617,5.00362 -1.8359,6.33691 -1.19384,1.57637 -1.58012,3.43186 -1.10451,5.30548 0.50499,1.98896 0.1787,3.27827 -1.05364,4.16308 -0.98175,0.70499 -1.78504,2.81581 -1.78504,4.69073 0,2.10768 -0.66183,3.62866 -1.73374,3.98454 -1.22286,0.40597 -1.7446,2.09134 -1.77048,5.71862 -0.0208,2.9274 -0.76781,5.97925 -1.73373,7.08414 -2.53253,2.89691 -2.31477,17.39546 0.32571,21.67573 2.20599,3.57617 5.92011,6.79732 7.89807,6.84987 0.68863,0.0183 2.76911,1.37077 4.62328,3.00549 2.0962,1.84814 4.57913,2.98273 6.56529,3 3.17897,0.0276 3.90713,0.25475 10.85408,3.38499 2.1949,0.98905 6.39689,1.64279 10.55924,1.64279 3.88448,0 8.36374,0.65446 10.22404,1.49384 2.14613,0.96843 6.64042,1.49601 12.77783,1.5 5.20709,0.003 9.78876,0.45616 10.18175,1.00616 0.39285,0.55 3.74057,1 7.43943,1 4.56792,0 7.18678,0.48117 8.16415,1.5 0.79138,0.825 2.35174,1.5 3.46745,1.5 1.11572,0 2.62406,0.62077 3.35177,1.37949 0.72782,0.75871 2.83015,1.64022 4.67195,1.95891 1.90108,0.32897 3.65505,1.41502 4.05773,2.51254 0.71395,1.9464 3.77803,3.11016 8.25523,3.13541 1.33173,0.008 3.36286,0.91365 4.51347,2.01365 1.15062,1.1 3.02086,2 4.15622,2 1.13536,0 2.40769,0.48068 2.82736,1.06817 0.41969,0.5875 1.48963,0.82697 2.37754,0.53215 0.91066,-0.30235 2.39982,0.5009 3.41591,1.84255 1.38964,1.83497 3.17318,2.50512 7.80409,2.93223 20.01559,1.84606 28.6795,2.80409 34.32037,3.79501 3.49636,0.6142 11.27492,1.32378 17.28577,1.57684 9.08614,0.38254 11.616,0.86415 15.00497,2.85658 2.24195,1.31806 5.13115,2.39647 6.42036,2.39647 1.28932,0 3.74648,1.125 5.46033,2.5 1.71397,1.375 3.622,2.5 4.24001,2.5 0.61802,0 1.81106,0.56469 2.651,1.25488 5.91687,4.86138 17.00443,12.74512 17.92457,12.74512 0.61328,0 2.33662,1.125 3.8297,2.5 1.49297,1.375 3.26843,2.5 3.9454,2.5 0.67696,0 2.53667,1.09111 4.13286,2.42468 1.59608,1.33357 4.78383,3.92107 7.08392,5.75 2.30008,1.82893 5.83782,5.878 7.86165,8.99794 2.98237,4.59767 3.68604,6.81375 3.71297,11.69444 0.0219,3.95111 0.59744,6.4269 1.67397,7.19982 1.73246,1.24401 2.19017,5.74418 0.75602,7.43312 -0.46707,0.55 -1.88941,1 -3.16082,1 -2.10256,0 -2.34239,0.76456 -2.6511,8.45016 -0.18667,4.64759 -0.93206,9.06797 -1.65642,9.82306 -0.72434,0.7551 -1.19742,3.37107 -1.05121,5.81328 0.19094,3.19167 -0.22481,4.60318 -1.47818,5.01932 -0.9591,0.31842 -2.0873,1.51531 -2.50709,2.65975 -0.88444,2.41087 -2.15284,3.91343 -6.54853,7.75734 -1.74818,1.52873 -3.17851,3.49897 -3.17851,4.3783 0,1.15177 -1.09953,1.59879 -3.93234,1.59879 -3.35557,0 -4.11495,0.45323 -5.17737,3.09019 -0.71939,1.7854 -1.86527,2.90234 -2.71376,2.64529 -0.80769,-0.2447 -3.36379,0.83971 -5.68016,2.40981 -2.31651,1.57009 -4.71899,2.85471 -5.33898,2.85471 -0.61998,0 -1.43136,1.62132 -1.80296,3.60294 -1.03735,5.5303 5.44334,12.86696 10.48677,11.872 2.75593,-0.54369 2.96711,-0.13657 2.64636,5.10144 -0.10633,1.74193 0.59467,3.63858 1.61665,4.37245 0.99273,0.71283 1.80504,2.5644 1.80504,4.1146 0,1.55019 0.52012,3.09665 1.15582,3.43657 0.67685,0.36197 1.15582,6.13624 1.15582,13.93657 0,10.61875 0.35137,13.57089 1.73373,14.56343 2.18197,1.56676 2.18346,3.02517 0.0115,6.63569 -0.94962,1.57537 -1.7298,3.79837 -1.73373,4.94 -0.0115,2.08595 -4.3838,6.42431 -6.48092,6.42431 -1.21997,0 -9.70773,9.42225 -9.70773,10.77659 0,0.45569 -2.50478,3.05488 -5.5661,5.77597 -3.0613,2.72109 -6.57211,6.51207 -7.80178,8.42439 -1.22968,1.91232 -3.66603,5.24234 -5.41421,7.40004 -3.5211,4.34591 -4.09254,8.6893 -1.44478,10.98015 0.95356,0.825 1.73373,1.95 1.73373,2.5 0,0.55 0.76354,1.66057 1.69663,2.46793 1.26747,1.0966 1.82273,4.87867 2.19479,14.95124 0.44291,11.99148 0.25601,13.80087 -1.68912,16.3535 -1.20286,1.5786 -2.19051,3.68983 -2.19467,4.69162 0,1.00178 -0.7878,2.49643 -1.74136,3.32143 -0.95355,0.825 -1.73374,2.40998 -1.73374,3.52219 0,1.18485 -0.96244,2.23994 -2.32423,2.54806 -1.28088,0.28978 -2.65804,1.70683 -3.06755,3.15638 -0.87484,3.09648 -2.30979,4.09428 -5.91815,4.1152 -3.88494,0.0225 -7.80965,2.49428 -18.5433,11.67854 -8.70332,7.44706 -9.77986,8.79288 -11.2281,14.03678 -1.89404,6.85858 -2.14035,14.6937 -0.54313,17.2758 0.80712,1.30488 0.42755,4.57612 -1.29798,11.18426 -1.34122,5.13696 -2.57944,10.91493 -2.75155,12.83993 -0.52046,5.82424 -9.79604,16.33257 -17.51646,19.84463 -7.60773,3.46073 -19.54342,6.35008 -24.31119,5.88513 -4.18823,-0.40843 -5.23772,-0.15576 -6.26732,1.50874 -1.04001,1.68126 -2.06845,1.91822 -6.46497,1.48948 -4.47962,-0.43685 -5.31215,-0.23184 -5.81505,1.43208 -0.34455,1.13991 -1.94629,2.17714 -3.87824,2.51145 -1.81025,0.31323 -3.88679,1.19029 -4.61462,1.949 -0.72781,0.75872 -2.16982,1.38246 -3.2044,1.38608 -1.03469,0.004 -3.44157,0.90066 -5.34866,1.99341 -1.90711,1.09275 -4.32209,1.98979 -5.36648,1.99341 -1.04452,0.004 -2.18115,0.64268 -2.52593,1.42008 -0.45263,1.0205 -1.8914,1.2668 -5.17508,0.8857 -2.73698,-0.3176 -4.86497,-0.084 -5.34405,0.5865 -0.43771,0.6129 -1.90202,1.1143 -3.25386,1.1143 -1.35185,0 -3.53161,0.8669 -4.84394,1.9265 -6.93758,5.6011 -22.73834,7.5639 -50.93066,6.3267 z m -24.85014,-45.63075 c 0,-1.30765 -0.78019,-2.93775 -1.73374,-3.62244 -1.96628,-1.41185 -2.50478,-13.4697 -0.64599,-14.46363 0.59838,-0.31992 2.25085,-2.59648 3.67239,-5.05902 1.72899,-2.99537 3.32646,-4.47735 4.82614,-4.47735 1.82527,0 2.07146,0.41778 1.32583,2.25 -0.50359,1.2375 -1.11917,7.19781 -1.36791,13.24513 -0.33819,8.224 -0.91484,11.43741 -2.28783,12.75 -2.51865,2.40786 -3.78889,2.19909 -3.78889,-0.62269 z M 287.62,647.7499 c -2.83245,-4.01932 -3.19168,-14.34661 -0.60194,-17.30887 0.93331,-1.06762 1.7135,-2.89853 1.73372,-4.06869 0.0196,-1.17015 0.82376,-2.69268 1.78574,-3.3834 0.96188,-0.69071 1.61204,-1.967 1.44478,-2.83619 -0.16736,-0.86919 0.5615,-1.73475 1.61965,-1.92347 2.34447,-0.41811 4.06676,3.48761 2.23629,5.07128 -0.79625,0.68891 -1.27059,6.06481 -1.27059,14.39934 0,12.66568 -0.11097,13.3 -2.32864,13.3 -1.38687,0 -3.25502,-1.31447 -4.61901,-3.25 z M 75.24243,518.71537 c -3.97764,-3.41851 -7.228385,-7.00297 -7.223878,-7.96547 0,-0.9625 -0.476891,-1.75 -1.069712,-1.75 -0.592936,0 -1.443274,-1.0125 -1.889767,-2.25 -0.446377,-1.2375 -2.238594,-3.66575 -3.982496,-5.39611 -1.743902,-1.73036 -4.549658,-5.66786 -6.23496,-8.75 -1.685183,-3.08214 -3.56894,-5.60389 -4.186033,-5.60389 -0.617093,0 -1.121955,-1.07686 -1.121955,-2.39301 0,-1.31616 -0.780179,-2.65203 -1.733731,-2.96862 -3.047206,-1.01165 -2.152254,-6.91735 1.507999,-9.95128 1.78297,-1.4779 3.747518,-2.68709 4.365647,-2.68709 1.861681,0 8.30804,5.56642 8.751066,7.55649 0.227119,1.0207 1.710616,2.11835 3.296517,2.43921 3.857437,0.78043 4.561562,5.2089 1.221703,7.68305 -3.11933,2.31075 -3.01022,3.91988 0.396446,5.85113 1.613988,0.91493 3.416607,3.44131 4.297689,6.02305 0.834733,2.44589 2.078746,4.44707 2.764496,4.44707 1.924091,0 9.806792,7.38303 9.806792,9.18517 0,0.88047 0.780174,1.85987 1.733728,2.17646 0.953553,0.31658 1.733738,1.48972 1.733738,2.60699 0,1.11726 0.520116,2.03138 1.155815,2.03138 1.716627,0 1.398889,2.93255 -0.495387,4.57143 -2.919601,2.526 -5.707325,1.49215 -13.093717,-4.85596 z m 428.52878,-49.0768 c 0,-0.92573 0.95852,-1.20278 2.99577,-0.86584 2.18751,0.3618 2.57737,0.72496 1.44478,1.34601 -2.33279,1.27922 -4.44055,1.0513 -4.44055,-0.48017 z M 322.31947,356.51263 c -1.68553,-1.75719 -0.64413,-4.85894 1.43322,-4.26877 1.69444,0.48139 2.68833,5.75604 1.08451,5.75604 -0.6001,0 -1.73304,-0.66927 -2.51773,-1.48727 z m -39.69538,-8.1794 c -1.3299,-1.15063 -0.84167,-2.33333 0.96325,-2.33333 0.95356,0 1.73373,0.675 1.73373,1.5 0,1.56157 -1.36698,1.98397 -2.69698,0.83333 z"
     style="fill:#ffffff"
     inkscape:connector-curvature="0" />
</svg>
