<?xml version="1.0" encoding="UTF-8" standalone="no"?>
<svg
   xmlns:dc="http://purl.org/dc/elements/1.1/"
   xmlns:cc="http://creativecommons.org/ns#"
   xmlns:rdf="http://www.w3.org/1999/02/22-rdf-syntax-ns#"
   xmlns:svg="http://www.w3.org/2000/svg"
   xmlns="http://www.w3.org/2000/svg"
   xmlns:sodipodi="http://sodipodi.sourceforge.net/DTD/sodipodi-0.dtd"
   xmlns:inkscape="http://www.inkscape.org/namespaces/inkscape"
   viewBox="0 0 563.5 514"
   height="500"
   width="500"
   version="1.1"
   id="svg3388"
   inkscape:version="0.91 r13725"
   sodipodi:docname="grafic.svg">
  <sodipodi:namedview
     pagecolor="#ffffff"
     bordercolor="#666666"
     borderopacity="1"
     objecttolerance="10"
     gridtolerance="10"
     guidetolerance="10"
     inkscape:pageopacity="0"
     inkscape:pageshadow="2"
     inkscape:window-width="1366"
     inkscape:window-height="716"
     id="namedview3352"
     showgrid="false"
     inkscape:zoom="0.472"
     inkscape:cx="-113.34746"
     inkscape:cy="250"
     inkscape:window-x="-8"
     inkscape:window-y="-8"
     inkscape:window-maximized="1"
     inkscape:current-layer="svg3388" />
  <metadata
     id="metadata3394">
    <rdf:RDF>
      <cc:Work
         rdf:about="">
        <dc:format>image/svg+xml</dc:format>
        <dc:type
           rdf:resource="http://purl.org/dc/dcmitype/StillImage" />
      </cc:Work>
    </rdf:RDF>
  </metadata>
  <defs
     id="defs3392" />
  <path
     id="path3398"
     d="m 48.818831,463.43536 -2.89601,-2.81041 -0.278148,-203.34528 -0.278148,-203.345269 1.895078,-1.838944 c 3.250136,-3.153862 8.557048,-4.341221 19.403111,-4.341221 11.174868,0 14.602751,0.809894 17.924268,4.234898 l 2.307206,2.37909 0,185.473456 0,185.47346 3.892515,0.51776 c 2.140897,0.28476 97.753497,0.52994 212.472467,0.54484 199.54818,0.0259 208.65819,0.0905 210.3865,1.49159 3.11732,2.52702 4.48579,8.19105 4.48579,18.56642 0,11.31115 -0.98161,15.0304 -4.69184,17.77671 l -2.74701,2.0333 -229.48988,0 -229.489898,0 -2.896001,-2.8104 z M 403.20327,410.01885 c -1.60926,-0.87063 -3.1873,-2.22355 -3.5067,-3.00646 -0.792,-1.94116 -0.85744,-33.5907 -0.0696,-33.55653 0.34607,0.015 9.69025,8.60887 20.76482,19.09747 l 20.1356,19.07019 -17.19915,-0.0109 c -15.4597,-0.01 -17.49507,-0.17094 -20.12511,-1.59383 z m 81.37086,0.37645 c 0,-1.74364 26.90241,-134.98293 27.34179,-135.41536 0.18953,-0.18659 0.34466,29.25234 0.34466,65.41983 l 0,65.75907 -2.85254,2.76824 -2.85255,2.76823 -10.99068,0 c -9.50601,0 -10.99068,-0.17561 -10.99068,-1.30001 z m -373.67754,-1.13946 c -1.33516,-0.82843 -2.74517,-1.99238 -3.13334,-2.58658 -0.38818,-0.59419 -0.71155,-37.38005 -0.71863,-81.74636 l -0.0129,-80.66603 1.94179,-1.77029 c 1.06798,-0.97367 2.34315,-1.7703 2.83371,-1.7703 0.49056,0 1.36889,-0.55772 1.95187,-1.23939 0.92747,-1.08452 7.05275,-1.23241 49.01245,-1.18345 45.94506,0.0536 48.05624,0.1219 50.43049,1.631 1.3629,0.86627 2.72352,2.40638 3.0236,3.42246 0.30009,1.01607 0.58326,37.99968 0.62925,82.18578 l 0.0836,80.3384 -2.17204,2.50501 -2.17204,2.50504 -49.63517,-0.0596 c -46.8,-0.0561 -49.77382,-0.14556 -52.06272,-1.56577 z m 145.66117,-0.77137 -2.70397,-2.39667 0,-119.58929 0,-119.58929 1.88771,-1.68121 c 1.59189,-1.41776 3.46543,-1.77252 11.95552,-2.26385 20.13567,-1.16525 20.39467,-1.11198 30.34542,6.24202 9.88281,7.30378 14.75343,11.75043 21.42989,19.5644 3.55864,4.16491 8.38606,9.77088 10.72758,12.45769 7.62878,8.75365 19.29569,26.60376 25.59796,39.16411 9.05867,18.05395 8.88609,17.29972 8.61434,37.65714 l -0.23215,17.38568 -13.43992,5.00442 c -7.39194,2.75244 -13.90455,5.30085 -14.47246,5.66313 -0.5679,0.36228 -1.03253,2.10034 -1.03253,3.86237 0,3.01298 0.53686,3.70004 9.01907,11.54234 4.96049,4.58626 11.57176,10.75802 14.69177,13.71503 l 5.67261,5.37639 -0.21922,33.28534 -0.21932,33.28537 -1.95835,0.94729 c -1.07709,0.521 -2.37961,1.35611 -2.89449,1.85576 -0.66775,0.64802 -15.14666,0.90849 -50.50082,0.90849 l -49.56478,0 -2.70386,-2.39666 z m 204.52477,-3.52923 c -2.07649,-1.89048 -6.93562,-6.18513 -10.79796,-9.54365 -3.86235,-3.35851 -13.30083,-11.9873 -20.9745,-19.17508 -7.6736,-7.18778 -16.2173,-15.06034 -18.98594,-17.49458 -2.76864,-2.43423 -9.37563,-8.51358 -14.6822,-13.50967 -8.25727,-7.77417 -19.4175,-17.52277 -26.90794,-23.50448 -1.12156,-0.89561 -4.58932,-3.25659 -7.70623,-5.24663 -3.11683,-1.99004 -5.37931,-3.89749 -5.02762,-4.23879 1.49533,-1.45113 14.22102,-5.93519 28.68879,-10.10883 8.55015,-2.46655 15.80551,-4.74583 16.12307,-5.06507 1.20847,-1.21515 -19.82266,-49.32822 -24.81058,-56.75927 -1.50287,-2.23901 -3.99742,-6.26924 -5.54333,-8.95604 -1.54599,-2.68682 -5.87708,-9.46491 -9.62456,-15.06244 -3.74749,-5.59753 -7.40629,-11.09329 -8.1305,-12.21279 -3.37054,-5.20979 -28.08848,-31.97618 -34.35594,-37.20309 -32.63258,-27.21466 -49.01465,-37.67558 -75.1433,-47.98334 -6.37067,-2.51322 -14.4146,-5.84323 -17.8754,-7.40004 -8.70866,-3.91746 -8.73355,-3.92714 -17.19916,-6.69207 -9.68874,-3.16444 -25.12383,-6.903385 -37.125,-8.993074 -5.1912,-0.903912 -13.49713,-2.347274 -18.45762,-3.207464 -8.70144,-1.508918 -18.17641,-2.660395 -31.11747,-3.78168 -3.52513,-0.305437 -5.84346,-0.838529 -5.42262,-1.246931 0.97958,-0.950634 23.36187,-2.397252 31.29644,-2.022768 3.46081,0.163342 10.0678,0.67382 14.68221,1.134408 4.6144,0.46058 11.59894,0.861515 15.52119,0.890979 11.82585,0.08879 30.97697,2.801887 41.11016,5.82394 2.99937,0.894511 6.58602,1.965379 7.97034,2.379716 1.38433,0.414325 6.29237,1.649464 10.90679,2.744753 4.6144,1.095289 11.22137,2.927801 14.68218,4.072271 3.46081,1.14446 10.82288,3.43303 16.36017,5.08571 5.53729,1.6527 13.08814,4.37839 16.77966,6.05711 9.55216,4.34381 13.76704,6.15412 18.89818,8.11685 4.93758,1.88869 21.46538,10.21477 23.47047,11.82357 0.69215,0.55535 3.14618,1.93021 5.45338,3.05525 9.65611,4.7085 27.84937,17.19196 40.69068,27.92028 13.36156,11.16292 35.92551,34.05398 38.05963,38.61143 0.52419,1.11951 2.78408,4.41696 5.02198,7.32768 11.33114,14.73808 27.97555,43.70314 33.68601,58.62137 1.28558,3.35852 2.68014,6.53294 3.09904,7.05425 0.55423,0.68968 2.63516,0.0245 7.64028,-2.44256 7.53541,-3.71409 16.00939,-7.51732 32.79988,-14.72097 l 4.94664,-2.12226 -0.47621,5.50514 c -0.26201,3.02782 -3.16641,17.4126 -6.45438,31.96617 -3.28797,14.55357 -8.59052,38.00212 -11.78351,52.10789 -3.19293,14.10578 -7.30042,32.30336 -9.12764,40.4391 -1.82722,8.13573 -4.01067,16.27739 -4.85209,18.0926 l -1.52996,3.30036 -3.77551,-3.43726 z m -0.71096,-153.85808 c -1.38173,-2.35097 -4.56356,-7.93832 -7.07078,-12.41635 -5.97641,-10.67409 -19.68833,-32.49331 -25.58311,-40.70928 -4.88532,-6.80903 -9.42908,-12.33 -16.52671,-20.0811 -2.32247,-2.53637 -6.02558,-6.63081 -8.22891,-9.09876 l -4.00623,-4.48721 0.2308,-44.54908 c 0.22208,-42.883986 0.29071,-44.582815 1.83511,-45.451684 0.88236,-0.496433 2.29814,-1.543777 3.14618,-2.32743 1.433,-1.32427 5.0673,-1.424825 51.4967,-1.424825 32.08037,0 50.31751,0.29143 50.96823,0.814471 0.55733,0.447959 1.95717,1.51468 3.11077,2.370492 l 2.09746,1.556019 0.22183,80.637387 0.22175,80.63738 -3.15819,0.56174 c -1.73703,0.30896 -5.23476,1.45859 -7.77268,2.55475 -15.65021,6.75947 -37.13305,15.68795 -37.74676,15.68795 -0.39785,0 -1.85374,-1.92351 -3.23546,-4.27447 z"
     style="fill:#ffffff"
     inkscape:connector-curvature="0" />
</svg>
