<?xml version="1.0" encoding="UTF-8" standalone="no"?>
<svg
   xmlns:dc="http://purl.org/dc/elements/1.1/"
   xmlns:cc="http://creativecommons.org/ns#"
   xmlns:rdf="http://www.w3.org/1999/02/22-rdf-syntax-ns#"
   xmlns:svg="http://www.w3.org/2000/svg"
   xmlns="http://www.w3.org/2000/svg"
   viewBox="0 0 605.0318 551.33478"
   height="500"
   width="500"
   version="1.1"
   id="svg3352">
  <metadata
     id="metadata3358">
    
  </metadata>
  <defs
     id="defs3356" />
  <path
     id="path3362"
     d="m 565.35932,550.77221 c -3.9693,-0.36106 -5.2082,-1.4635 -27.0553,-24.0753 -12.5926,-13.0333 -34.0703,-35.5337 -47.7284,-50.00089 -19.2849,-20.42731 -25.193,-26.12576 -26.4447,-25.50628 -0.8865,0.43874 -8.6622,0.93417 -17.2792,1.10096 -14.8704,0.28782 -15.7675,0.19561 -17.6388,-1.81299 -1.0844,-1.16392 -2.2474,-3.49523 -2.5845,-5.18068 -0.4902,-2.45115 -0.1122,-3.52848 1.8889,-5.383 1.3759,-1.27519 2.5017,-2.74187 2.5017,-3.25929 0,-3.03786 9.7837,-1.5658 13.6991,2.06119 2.4005,2.22366 5.3009,1.80899 5.3009,-0.75787 0,-2.06071 -9.2649,-12.5715 -24.75,-28.07823 -12.9347,-12.95273 -14.1763,-15.2489 -10.7182,-19.82096 2.2777,-3.01131 1.7509,-5.36132 -1.5888,-7.08835 -1.6813,-0.86946 -4.2688,-3.46852 -5.75,-5.77568 -4.1782,-6.50832 -7.3581,-9.69484 -9.6748,-9.69484 -1.1667,0 -6.3914,2.8125 -11.6105,6.25 -5.2191,3.4375 -13.9709,8.4291 -19.4485,11.09244 -5.4775,2.66335 -10.7406,5.25083 -11.6956,5.74997 -2.5782,1.34752 -15.6725,5.89519 -20.2636,7.03756 -7.4395,1.85116 -13.9644,2.95434 -23.4693,3.96807 -6.1777,0.65887 -10.5638,1.68638 -12.618,2.95594 -4.2862,2.64901 -13.6314,2.64864 -18.5745,-7.3e-4 -2.457,-1.31686 -6.186,-2.06464 -11.525,-2.3111 -4.3411,-0.20039 -8.4629,-0.71661 -9.1595,-1.14717 -1.1684,-0.72208 -7.1169,-1.90327 -16.41,-3.25847 -2.0659,-0.30128 -4.005,-0.95024 -4.309,-1.44214 -0.304,-0.4919 -1.5387,-0.90868 -2.7437,-0.92617 -1.205,-0.0175 -3.0645,-0.6925 -4.1321,-1.5 -1.0676,-0.80751 -2.4973,-1.4682 -3.177,-1.4682 -0.6797,0 -4.6456,-1.575 -8.8131,-3.5 -4.1675,-1.925 -7.8052,-3.5 -8.0839,-3.5 -1.6588,0 -10.8021,-4.97552 -15.5043,-8.43696 -6.3169,-4.65009 -8.009,-5.74574 -13.2758,-8.59593 -2.0873,-1.12961 -10.2625,-8.50004 -18.1671,-16.37874 -13.05,-13.00737 -16.7001,-17.62288 -22.7252,-28.73593 -0.9281,-1.7119 -2.8085,-4.29153 -4.1786,-5.7325 -2.6492,-2.78621 -8.0001,-13.62396 -9.1932,-18.61994 -0.3941,-1.65 -1.0524,-3.45 -1.4631,-4 -0.4107,-0.55 -1.0781,-2.575 -1.4833,-4.5 -0.4052,-1.925 -1.8072,-5.33954 -3.1155,-7.58786 -1.3083,-2.24832 -2.3788,-5.02351 -2.3788,-6.16709 0,-1.14358 -0.8344,-4.02905 -1.8542,-6.41214 -1.37027,-3.20188 -1.59883,-4.90361 -0.87565,-6.51922 0.54595,-1.21961 0.63225,-3.4304 0.1953,-5 -0.43084,-1.54753 -0.67898,-3.62802 -0.55143,-4.62332 0.12755,-0.99529 -0.35375,-2.5153 -1.06957,-3.3778 -0.91765,-1.10571 -1.41585,-6.55659 -1.68933,-18.48305 -0.33684,-14.69018 -0.17023,-17.15533 1.26678,-18.74321 1.13045,-1.24914 1.76134,-4.11058 1.99146,-9.03242 0.18524,-3.96224 0.84304,-7.71028 1.46174,-8.32898 0.6187,-0.6187 1.1249,-2.9339 1.1249,-5.14488 0,-3.72292 4.0928,-18.14033 6.1261,-21.58003 0.4876,-0.825 1.135,-2.175 1.4385,-3 8.007,-21.7625 34.6881,-55.29799 56.7677,-71.351313 13.9098,-10.11338 14.7093,-10.60365 29.1677,-17.88715 12.8101,-6.45313 20.6886,-9.40321 31.5,-11.79509 3.025,-0.669244 7.4927,-1.835474 9.9282,-2.591625 2.4354,-0.756152 6.2604,-1.380163 8.5,-1.386691 2.2395,-0.0065 6.5468,-0.676187 9.5718,-1.488131 7.2436,-1.944247 24.8742,-1.944247 32.3387,0 3.1674,0.825 7.993,1.5 10.7237,1.5 2.7306,0 5.7461,0.432795 6.7012,0.961767 0.955,0.528971 5.1114,1.850558 9.2364,2.93686 23.1767,6.10347 47.2314,17.91824 65,31.92559 13.3372,10.513973 29.1953,28.417223 39.5184,44.615083 7.9307,12.44375 17.5531,35.27148 20.4696,48.5607 0.6639,3.025 1.631,7.3 2.1491,9.5 0.5182,2.2 1.3264,7.375 1.7961,11.5 0.4697,4.125 1.3519,8.76679 1.9604,10.3151 1.5689,3.99178 1.3706,14.49619 -0.3828,20.27597 -0.819,2.69991 -1.494,7.1619 -1.5,9.91553 -0.01,2.75363 -0.4843,6.57863 -1.063,8.5 -0.5786,1.92137 -1.4558,5.5184 -1.9492,7.9934 -2.573,12.90629 -5.527,21.5457 -12.3718,36.18256 -4.7231,10.09976 -13.8383,24.97701 -18.7367,30.58094 -1.569,1.79492 -3.5662,4.64328 -4.4383,6.32969 -1.5545,3.00606 -1.5111,3.17425 2.2092,8.57599 4.2179,6.12426 10.6138,12.33082 12.707,12.33082 0.7493,0 2.5065,-0.9 3.9049,-2 2.9772,-2.34187 4.3262,-2.50568 5.4274,-0.6591 0.4399,0.7375 3.992,3.00633 7.8936,5.04184 5.9131,3.08488 9.9589,6.62131 24.305,21.24498 12.0642,12.29754 17.6774,17.36512 18.7703,16.94573 1.1815,-0.4534 1.366,-1.26144 0.7614,-3.33589 -0.4389,-1.50566 -0.8278,-14.21256 -0.8642,-28.23756 l -0.066,-25.5 7.5,0 7.5,0 0,27.5 c 0,15.125 -0.3343,31.01642 -0.7427,35.31426 l -0.7427,7.81426 46.9927,46.55875 46.9927,46.55875 0,6.50857 c 0,7.29555 1.0207,5.89639 -15.4994,21.24541 -12.6035,11.7101 -15.56,14.00497 -17.8115,13.82529 -1.204,-0.0961 -4.061,-0.34498 -6.3489,-0.55308 z M 300.46372,372.58946 c 0.3095,-0.5008 4.3928,-1.22958 9.0739,-1.61952 4.6811,-0.38993 8.756,-1.10519 9.0553,-1.58945 0.2993,-0.48427 2.3497,-0.88049 4.5566,-0.88049 2.2332,0 4.6775,-0.66512 5.5124,-1.5 0.825,-0.825 3.1553,-1.50168 5.1785,-1.50374 2.0233,-0.002 5.2327,-0.95115 7.1322,-2.10909 1.8994,-1.15795 5.3737,-2.68325 7.7207,-3.38957 2.3469,-0.70632 6.4178,-2.81554 9.0464,-4.68716 2.6286,-1.87162 6.5331,-4.28213 8.6766,-5.35669 4.7194,-2.36588 22.4807,-18.34488 32.1027,-28.88124 3.85,-4.21585 8.5808,-10.7244 10.5128,-14.46346 1.932,-3.73905 4.7445,-8.41317 6.25,-10.38694 1.5055,-1.97377 2.7372,-4.683 2.7372,-6.02053 0,-1.33752 0.977,-3.67393 2.1711,-5.19201 1.23,-1.5636 2.7669,-5.84879 3.5454,-9.88486 0.7558,-3.91859 1.7208,-8.92471 2.1445,-11.12471 0.4238,-2.2 1.3034,-4.98292 1.9547,-6.18426 0.6514,-1.20134 1.1871,-4.80134 1.1905,-8 0,-3.19866 0.6405,-7.03172 1.4159,-8.51791 1.8481,-3.5425 1.8453,-16.98952 -0.01,-22.58278 -0.7796,-2.35672 -1.4317,-6.85672 -1.4491,-10 -0.019,-3.43169 -0.6184,-6.4906 -1.5,-7.65618 -0.8076,-1.06762 -1.4682,-3.05576 -1.4682,-4.41809 0,-5.48858 -2.3361,-15.36128 -4.3554,-18.40655 -1.1796,-1.77883 -2.7645,-5.03423 -3.5222,-7.23423 -0.7576,-2.2 -2.2089,-5.7487 -3.2249,-7.88601 -1.0161,-2.1373 -1.6387,-4.22381 -1.3835,-4.63669 0.2552,-0.41288 -0.2061,-1.30677 -1.0251,-1.98644 -0.8186,-0.67966 -1.4887,-1.82112 -1.4887,-2.53658 0,-0.71546 -1.1172,-2.62855 -2.4827,-4.25132 -2.8165,-3.34727 -9.5173,-13.14193 -9.5173,-13.91166 0,-0.27924 -2.2455,-3.32974 -4.9901,-6.77889 -8.3017,-10.43283 -26.2796,-23.90376 -41.0099,-30.728763 -4.675,-2.16609 -9.774,-4.57853 -11.331,-5.36099 -1.5571,-0.78246 -3.6196,-1.42266 -4.5834,-1.42266 -0.9637,0 -2.0741,-0.3218 -2.4674,-0.71512 -0.8396,-0.83962 -7.851,-2.8451 -15.6182,-4.46732 -6.3023,-1.31627 -48.1226,-1.63956 -55,-0.42517 -2.475,0.43702 -6.3,1.38098 -8.5,2.09769 -2.2,0.7167 -6.025,1.89239 -8.5,2.61263 -4.3609,1.26906 -8.6925,2.9911 -17.94,7.13215 -4.1686,1.86673 -6.7275,3.361213 -16.56,9.671713 -7.0249,4.50857 -16.8029,12.69136 -23.594,19.74474 -6.4698,6.71966 -15.906,18.3537 -15.906,19.61079 0,0.3507 -1.3182,2.59089 -2.9294,4.97821 -7.8046,11.56426 -15.0358,29.91692 -19.2118,48.75969 -1.9514,8.80511 -2.3251,13.32482 -2.3151,28 0.018,26.26421 3.2357,41.37535 13.6127,63.92652 9.4711,20.58246 23.0921,37.58361 38.7244,48.33405 2.5406,1.74716 5.9852,4.54078 7.6548,6.20804 1.6696,1.66727 5.2696,4.12832 8,5.46901 2.7304,1.34068 7.4394,3.65213 10.4644,5.13655 3.025,1.48442 6.625,3.03689 8,3.44995 1.375,0.41305 3.5732,1.5891 4.8849,2.61344 1.3116,1.02434 3.5085,1.86244 4.8819,1.86244 1.3734,0 3.9597,0.9039 5.7472,2.00867 1.7876,1.10477 4.7657,1.98247 6.6181,1.95044 4.7469,-0.0821 19.0676,2.04536 20.8664,3.09985 1.9935,1.16865 21.7262,1.19546 22.4462,0.0305 z M 48.753595,451.90123 c -0.40401,-0.40401 -0.73456,-1.98027 -0.73456,-3.5028 0,-1.52253 -0.43308,-3.90731 -0.96239,-5.29951 -0.72806,-1.91493 -0.58892,-2.90476 0.57143,-4.0651 1.3237,-1.3237 6.65311,-1.53382 38.90337,-1.53382 22.991205,0 37.599575,0.37217 37.967375,0.96726 1.1349,1.83639 -0.6946,11.07836 -2.3634,11.93896 -2.044,1.05404 -72.389635,2.48719 -73.381825,1.49501 z m 130.966625,-0.118 c -2.7787,-0.29974 -4.0153,-0.99701 -4.6049,-2.59651 -1.3079,-3.54797 -2.1621,-10.52892 -1.3485,-11.01974 0.4137,-0.24956 17.9647,-0.77535 39.0022,-1.16842 l 38.25,-0.71469 -0.011,3.35806 c -0.01,1.84694 -0.2834,5.00567 -0.6164,7.01941 -0.5858,3.54208 -0.7727,3.68373 -5.739,4.34877 -5.7717,0.77289 -59.0534,1.40729 -64.9324,0.77312 z m 166.2988,-0.39811 c -4.675,-0.42348 -16.15,-1.27326 -25.5,-1.8884 -9.35,-0.61514 -17.5625,-1.30193 -18.25,-1.52619 -0.8047,-0.2625 -1.25,-2.42362 -1.25,-6.06637 l 0,-5.65862 4.75,0.58143 c 2.6125,0.31979 7,1.14926 9.75,1.84327 3.5335,0.89173 13.25,1.20893 33.1273,1.08147 26.3388,-0.16889 28.235,-0.0614 29.8203,1.69042 1.0477,1.15767 1.571,3.08805 1.3727,5.06412 -0.2729,2.72126 -0.9116,3.39809 -4.3203,4.57848 -4.2868,1.48448 -15.2014,1.59562 -29.5,0.30039 z M 13.529115,433.51631 C 13.183655,432.95734 10.275705,432.5 7.0670048,432.5 c -4.50533,0 -5.978578,-0.37679 -6.46885799,-1.65445 -0.34918,-0.90994 -0.32538,-18.00994 0.0529,-38 L 1.3387968,356.5 l 4.275028,0 c 2.35127,0 5.4471702,0.44565 6.8797802,0.99032 l 2.60475,0.99033 -0.0193,27.75967 c -0.0106,15.26783 0.25457,32.08475 0.58935,37.37094 0.40074,6.32772 0.24659,9.83504 -0.45121,10.26631 -0.58295,0.36028 -1.34256,0.19771 -1.68802,-0.36126 z M 8.1511148,306.5056 c -2.40236,-0.9216 -4.70335,-2.31239 -5.11333,-3.09062 C 1.1161068,299.7671 -0.69424319,239.46587 0.89378681,232 1.6665568,228.36694 4.0693248,227.78741 9.2993548,229.97266 l 3.7196802,1.55418 0.11482,9.73658 c 0.0632,5.35512 0.32717,12.21158 0.58673,15.23658 0.95572,11.13876 0.80193,49.89675 -0.20155,50.79055 -0.59639,0.53121 -2.76291,0.2144 -5.3679202,-0.78495 z M 497.49232,297.29095 c -0.2738,-0.7135 -0.3798,-18.39584 -0.2356,-39.29411 L 497.51902,220 l 7.5,0 7.5,0 0,39 0,39 -7.2644,0.2941 c -5.2503,0.21256 -7.4025,-0.0656 -7.7623,-1.00315 z M 1.0190368,164.77781 c 0,-9.32543 -0.29614999,-26.46471 -0.65810999,-38.08728 -0.75161,-24.13428 -1.20835,-22.90406 8.07282799,-21.74445 l 5.3823402,0.67248 0.67083,8.69072 c 0.36896,4.7799 0.15017,17.24072 -0.48621,27.69072 -0.63637,10.45 -1.33468,23.05 -1.55179,28 l -0.39475,9 -3.2675702,0.80598 c -1.79716,0.44329 -4.28007,1.05825 -5.51757,1.36658 l -2.249998,0.56059 0,-16.95534 z m 496.4732832,5.51314 c -0.2738,-0.7135 -0.3798,-18.39584 -0.2356,-39.29411 l 0.2623,-37.996843 7.5,0 7.5,0 0,39.000003 0,39 -7.2644,0.2941 c -5.2503,0.21256 -7.4025,-0.0656 -7.7623,-1.00315 z M 0.46967681,51.231963 c -0.26762,-0.69742 -0.366,-12.50992 -0.21861,-26.250001 L 0.51903681,0 19.019035,0 l 18.5,0 0,6 0,5.999999 -11,0.5 -11,0.5 -0.27114,19.750001 -0.27114,19.75 -7.0102402,0 c -4.73889,0 -7.16790799,-0.410851 -7.49683799,-1.268037 z M 497.53862,43.531635 c -0.3578,-0.578903 -0.5525,-7.685345 -0.4327,-15.792093 l 0.2178,-14.739543 -15.9023,-0.5 -15.9024,-0.5 0,-5.999999 0,-6 23.5,0 23.5,0 0,21.999999 0,22.000001 -7.165,0.292093 c -4.2549,0.173461 -7.4291,-0.135396 -7.8154,-0.760458 z M 85.432305,11.134571 c -0.29309,-0.76378 -0.39348,-3.581515 -0.22308,-6.261631 L 85.519035,0 l 39.499985,0 39.5,0 0,6 0,5.999999 -39.2769,0.261632 c -32.766845,0.218266 -39.365255,0.03146 -39.809815,-1.12706 z m 127.000015,1.37e-4 c -0.2931,-0.763856 -0.3935,-3.581652 -0.2231,-6.261768 L 212.51902,0 l 39,0 39,0 0,6 0,5.999999 -38.7769,0.261768 c -32.342,0.21833 -38.8653,0.0313 -39.3098,-1.127059 z m 127,0 c -0.2931,-0.763856 -0.3935,-3.581652 -0.2231,-6.261768 L 339.51902,0 l 39,0 39,0 0,6 0,5.999999 -38.7769,0.261768 c -32.342,0.21833 -38.8653,0.0313 -39.3098,-1.127059 z"
     style="fill:#ffffff" />
</svg>
